<svg xmlns="http://www.w3.org/2000/svg" width="1529" height="776" fill="none"><mask id="a" style="mask-type:luminance" maskUnits="userSpaceOnUse" x="0" y="0" width="1529" height="776"><path d="M1528.91.877H.003v774.168H1528.91V.877Z" fill="#fff"/></mask><g opacity=".2" mask="url(#a)"><path d="M961.514 1067.6h132.956L765.495 379.497 961.514 1067.6Z" fill="#00B3E3"/><path d="M740.427 1067.6h95.716l-70.648-688.103-25.068 688.103Z" fill="#52C9E8"/><path d="M836.143 1067.6h125.371L765.495 379.497l70.648 688.103Z" fill="#96D9E8"/><path d="M1529.3 830.414V610.529L765.495 379.497 1529.3 830.414Z" fill="#52C9E8"/><path d="M1529.3 1031.12V916.726L765.495 379.497 1529.3 1031.12Z" fill="#00B3E3"/><path d="M245.329 1067.6h317.328C637.128 815.533 765.5 379.497 765.5 379.497L245.329 1067.6Z" fill="#96D9E8"/><path d="M1339.26 1067.6h190.04v-36.48L765.495 379.497 1339.26 1067.6Z" fill="#96D9E8"/><path d="M1094.47 1067.6h244.79L765.495 379.497 1094.47 1067.6Z" fill="#52C9E8"/><path d="M562.66 1067.6h177.776l25.067-688.103S637.131 815.533 562.66 1067.6ZM1.693-199.703v103.215l763.802 475.985-763.802-579.2Z" fill="#00B3E3"/><path d="M1.693-96.487V69.07l763.802 310.427L1.693-96.488Z" fill="#52C9E8"/><path d="M6.941-308.609H1.693v108.906l763.802 579.2L6.941-308.609Z" fill="#96D9E8"/><path d="M1.693 69.07v199.19l763.802 111.236L1.693 69.069Z" fill="#96D9E8"/><path d="M100.76 1067.6h144.57l520.163-688.103L100.76 1067.6Z" fill="#52C9E8"/><path d="M1.693 684.748v222.473l763.802-527.724L1.693 684.748Z" fill="#96D9E8"/><path d="M1.693 268.26v290.743l763.802-179.506L1.693 268.26Z" fill="#00B3E3"/><path d="M1.693 907.221V1067.6h99.069l664.733-688.103L1.693 907.221Z" fill="#00B3E3"/><path d="M1.693 559.003v125.745l763.802-305.251L1.693 559.003Z" fill="#52C9E8"/><path d="M1529.3 916.726v-86.312L765.495 379.497 1529.3 916.726ZM825.807-308.609h-50.231l-10.081 688.106 60.312-688.106Z" fill="#96D9E8"/><path d="M775.577-308.609H654.132l111.363 688.106 10.082-688.106Z" fill="#00B3E3"/><path d="M962.135-308.609H825.807l-60.312 688.106 196.64-688.106Z" fill="#52C9E8"/><path d="M1040.01-308.609h-77.875l-196.64 688.106 274.515-688.106Z" fill="#00B3E3"/><path d="M1529.3 610.528V489.844L765.495 379.497 1529.3 610.528Z" fill="#96D9E8"/><path d="M463.972-308.609H346.7l418.793 688.106-301.521-688.106Z" fill="#00B3E3"/><path d="M765.494 379.497 346.701-308.609H6.941l758.553 688.106ZM654.133-308.609H525.131l240.366 688.106-111.364-688.106Z" fill="#52C9E8"/><path d="M1174.55-308.609h-134.54L765.495 379.497l409.055-688.106Z" fill="#96D9E8"/><path d="M525.131-308.609h-61.156l301.521 688.106-240.365-688.106Z" fill="#96D9E8"/><path d="M1266.46-308.609h-91.91L765.495 379.497l500.965-688.106Z" fill="#52C9E8"/><path d="M1529.3 10.356V-95.748L765.495 379.498 1529.3 10.356Z" fill="#00B3E3"/><path d="M1529.3 254.413V10.356L765.495 379.498 1529.3 254.413Z" fill="#96D9E8"/><path d="M1529.3 489.845V362.401l-763.805 17.096L1529.3 489.845Z" fill="#00B3E3"/><path d="M1529.3 362.4V254.411L765.495 379.496 1529.3 362.4Z" fill="#52C9E8"/><path d="M1331.93-308.609h-65.47L765.495 379.497l566.435-688.106Z" fill="#00B3E3"/><path d="M1475.8-308.609h-143.87L765.495 379.497 1475.8-308.609Z" fill="#96D9E8"/><path d="M1529.3-95.75v-212.859h-53.5L765.495 379.497 1529.3-95.749Z" fill="#52C9E8"/><path d="m268.552 813.691-67.957 73.424 133.692-103.954-49.49-1.72 117.686-110.95-180.762 136.97 46.831 6.23ZM1112.84 435.594l57.17 2.05-98.71-30.45 22.86 37.489-93.51-14.121 132.25 43.49-20.06-38.458Z" fill="#96D9E8"/><mask id="b" style="mask-type:luminance" maskUnits="userSpaceOnUse" x="1" y="-309" width="1529" height="1377"><path d="M1529.3-308.608H1.69V1067.61H1529.3V-308.608Z" fill="#fff"/></mask><g mask="url(#b)" fill="#0069A6"><path d="m2122.19-221.055-908.7 381.966 869.6-585.163 39.1 203.197ZM1691.22 208.88l-617.83 78.786L1686.6 160.91l4.62 47.97ZM1964.64 730.204 1266.46 490.85l707.23 77.818-9.05 161.536ZM1634.08 1804.96l-625.9-1040.979 732.05 880.189-106.15 160.79ZM1007.11 1628.45 819.998 681.258l227.062 930.252-39.95 16.94ZM-314.778 954.576l831.065-455.361-809.653 557.505-21.412-102.144ZM-348.711 517.467l621.016-84.721-616.373 132.942-4.643-48.221ZM-375.696-67.657l775.841 325.352-824.583-130.311 48.742-195.04ZM324.1-1006.07 673.853 67.947 202.312-948.88l121.788-57.19Z"/></g></g></svg>