<?xml version="1.0" encoding="utf-8"?>
<!-- Generator: Adobe Illustrator 27.2.0, SVG Export Plug-In . SVG Version: 6.00 Build 0)  -->
<svg version="1.1" id="Layer_1" xmlns="http://www.w3.org/2000/svg" xmlns:xlink="http://www.w3.org/1999/xlink" x="0px" y="0px"
	 viewBox="0 0 94.4 100.1" style="enable-background:new 0 0 94.4 100.1;" xml:space="preserve">
<style type="text/css">
	.st0{fill:#E23237;}
	.st1{fill:#FFFFFF;}
	.st2{fill:#B52E31;}
</style>
<path class="st0" d="M7.8,22.1L46.7,8.3l39.9,13.6l-6.5,51.4L46.7,91.8L13.8,73.5L7.8,22.1z"/>
<g>
	<path class="st1" d="M46.7,8.4c0.2,0,0.4,0,0.6,0.1l38.2,13c0.8,0.3,1.2,1,1.1,1.8l-6.2,49.2c-0.1,0.5-0.4,1-0.9,1.3l-32,17.7
		c-0.3,0.1-0.5,0.2-0.8,0.2c-0.3,0-0.6-0.1-0.8-0.2L14.4,74c-0.5-0.3-0.8-0.8-0.9-1.3L7.8,23.6C7.7,22.8,8.2,22,9,21.7L46.1,8.5
		C46.3,8.4,46.5,8.4,46.7,8.4 M46.7,4.4c-0.7,0-1.3,0.1-1.9,0.3L7.6,18c-2.5,0.9-4.1,3.4-3.8,6l5.7,49.2c0.2,1.8,1.3,3.4,2.9,4.3
		L43.9,95c0.9,0.5,1.8,0.7,2.8,0.7c1,0,1.9-0.2,2.8-0.7l32-17.7c1.6-0.9,2.7-2.5,2.9-4.3l6.2-49.2c0.3-2.7-1.3-5.3-3.8-6.1l-38.2-13
		C47.9,4.5,47.3,4.4,46.7,4.4L46.7,4.4z"/>
</g>
<path class="st2" d="M86.6,21.9L46.7,8.3v83.5l33.4-18.5L86.6,21.9z"/>
<path class="st1" d="M46.7,18L22.5,71.9l9-0.2l4.8-12.1h21.7l5.3,12.3l8.6,0.2L46.7,18z M46.8,35.3L55,52.4H39.6L46.8,35.3z"/>
</svg>
