<?xml version="1.0" encoding="utf-8"?>
<!-- Generator: Adobe Illustrator 27.2.0, SVG Export Plug-In . SVG Version: 6.00 Build 0)  -->
<svg version="1.1" id="Layer_1" xmlns="http://www.w3.org/2000/svg" xmlns:xlink="http://www.w3.org/1999/xlink" x="0px" y="0px"
	 viewBox="0 0 94 100" style="enable-background:new 0 0 94 100;" xml:space="preserve">
<style type="text/css">
	.st0{fill-rule:evenodd;clip-rule:evenodd;fill:#FFFFFF;}
	.st1{fill-rule:evenodd;clip-rule:evenodd;fill:url(#SVGID_1_);}
	.st2{fill-rule:evenodd;clip-rule:evenodd;fill:#FF5D01;}
	.st3{fill-rule:evenodd;clip-rule:evenodd;fill:url(#SVGID_00000134218788710942883900000017796203966363868062_);}
</style>
<g>
	<path class="st0" d="M78.1,69.4c-0.6,0-1.2-0.1-1.8-0.4c-5.7-3-11.8-5-18.2-6.2c-1.5-0.3-2.7-1.3-3.1-2.8l-8-27.2L39.1,60
		c-0.4,1.4-1.6,2.5-3.1,2.8C29.6,63.9,23.5,66,17.7,69c-0.6,0.3-1.2,0.4-1.8,0.4c-0.9,0-1.8-0.3-2.5-0.9c-1.2-1-1.7-2.7-1.2-4.2
		l16.2-53.1c0.8-2.7,1.3-4.4,2.5-5.9c1.1-1.3,2.4-2.3,4-3c1.8-0.7,3.5-0.7,6.3-0.7h11.6c2.9,0,4.6,0,6.3,0.7c1.6,0.6,3,1.7,4,3
		c1.2,1.5,1.7,3.1,2.5,5.9l16.2,53.1c0.5,1.5,0,3.2-1.2,4.2C79.9,69.1,79,69.4,78.1,69.4z"/>
	<path class="st0" d="M50.5,98.3c-0.5,0-1-0.1-1.5-0.3c-5.3-2.2-8.8-7.4-8.8-13.2v-0.3c0-0.7,0-1.8-0.1-2.4c-0.1,0-0.3,0.1-0.3,0.3
		c0,1.6-1,3-2.4,3.6c-0.5,0.2-1,0.3-1.5,0.3c-1,0-2-0.4-2.8-1.2c-5.3-5.3-5.3-12.6-5.3-13.8c0-1.4,0.1-3.9,0.9-6.3
		c0.5-1.5,1.8-2.5,3.4-2.7c0.1,0,0.2,0,0.3,0c1.4,0,2.8,0.8,3.5,2.1c0.6,1.1,4.9,3.4,12,3.4c5.6,0,9.9-1.4,11.5-2.9
		C60.1,64.3,61,64,62,64c0.4,0,0.7,0,1.1,0.2c1.3,0.4,2.3,1.3,2.7,2.6c0.5,1.5,0.7,3.1,0.7,4.7c0,2.6-0.6,5.1-1.9,7.4
		c-2.2,4.1-5.4,6.1-7.8,7.6c-2.8,1.8-3.4,2.3-3.4,4.1c0,0.7,0.2,1.4,0.5,2.1c0.7,1.5,0.4,3.2-0.7,4.4C52.6,97.9,51.5,98.3,50.5,98.3
		z"/>
	<path class="st0" d="M50.5,98.3c-0.5,0-1-0.1-1.5-0.3c-5.3-2.2-8.8-7.4-8.8-13.2v-0.3c0-0.7,0-1.8-0.1-2.4c-0.1,0-0.3,0.1-0.3,0.3
		c0,1.6-1,3-2.4,3.6c-0.5,0.2-1,0.3-1.5,0.3c-1,0-2-0.4-2.8-1.2c-5.3-5.3-5.3-12.6-5.3-13.8c0-1.4,0.1-3.9,0.9-6.3
		c0.5-1.5,1.8-2.5,3.4-2.7c0.1,0,0.2,0,0.3,0c1.4,0,2.8,0.8,3.5,2.1c0.6,1.1,4.9,3.4,12,3.4c5.6,0,9.9-1.4,11.5-2.9
		C60.1,64.3,61,64,62,64c0.4,0,0.7,0,1.1,0.2c1.3,0.4,2.3,1.3,2.7,2.6c0.5,1.5,0.7,3.1,0.7,4.7c0,2.6-0.6,5.1-1.9,7.4
		c-2.2,4.1-5.4,6.1-7.8,7.6c-2.8,1.8-3.4,2.3-3.4,4.1c0,0.7,0.2,1.4,0.5,2.1c0.7,1.5,0.4,3.2-0.7,4.4C52.6,97.9,51.5,98.3,50.5,98.3
		z"/>
	
		<linearGradient id="SVGID_1_" gradientUnits="userSpaceOnUse" x1="65.1922" y1="252.8238" x2="46.9865" y2="315.4729" gradientTransform="matrix(1 0 0 1 0 -249.9765)">
		<stop  offset="0" style="stop-color:#000014"/>
		<stop  offset="1" style="stop-color:#150426"/>
	</linearGradient>
	<path class="st1" d="M60.1,7.8c0.7,0.9,1.1,2.1,1.8,4.5l16.2,53.1c-6-3.1-12.5-5.3-19.3-6.5L48.3,23.4c-0.2-0.6-0.7-1-1.3-1
		s-1.1,0.4-1.3,1L35.3,58.9c-6.9,1.2-13.4,3.4-19.4,6.5l16.2-53.1l0,0c0.7-2.4,1.1-3.6,1.8-4.5C34.6,7,35.4,6.4,36.4,6
		c1.1-0.4,2.3-0.4,4.9-0.4h11.6c2.5,0,3.8,0,4.9,0.4C58.7,6.4,59.5,7,60.1,7.8z"/>
	<path class="st2" d="M62.1,68c-2.7,2.3-8,3.8-14.1,3.8c-7.5,0-13.8-2.3-15.5-5.5c-0.6,1.8-0.7,3.9-0.7,5.2c0,0-0.4,6.5,4.1,11
		c0-2.3,1.9-4.2,4.2-4.2c4,0,4,3.5,4,6.3c0,0.1,0,0.2,0,0.3c0,4.3,2.6,8,6.4,9.6c-0.6-1.1-0.9-2.4-0.9-3.8c0-4.1,2.4-5.6,5.2-7.4
		l0,0c2.2-1.4,4.7-3,6.4-6.1c0.9-1.6,1.4-3.5,1.4-5.5C62.6,70.3,62.4,69.1,62.1,68z"/>
	
		<linearGradient id="SVGID_00000025442883016181902190000010220276795912060556_" gradientUnits="userSpaceOnUse" x1="60.588" y1="293.0433" x2="44.8207" y2="326.0513" gradientTransform="matrix(1 0 0 1 0 -249.9765)">
		<stop  offset="0" style="stop-color:#FF1639"/>
		<stop  offset="1" style="stop-color:#FF1639;stop-opacity:0"/>
	</linearGradient>
	<path style="fill-rule:evenodd;clip-rule:evenodd;fill:url(#SVGID_00000025442883016181902190000010220276795912060556_);" d="
		M62.1,68c-2.7,2.3-8,3.8-14.1,3.8c-7.5,0-13.8-2.3-15.5-5.5c-0.6,1.8-0.7,3.9-0.7,5.2c0,0-0.4,6.5,4.1,11c0-2.3,1.9-4.2,4.2-4.2
		c4,0,4,3.5,4,6.3c0,0.1,0,0.2,0,0.3c0,4.3,2.6,8,6.4,9.6c-0.6-1.1-0.9-2.4-0.9-3.8c0-4.1,2.4-5.6,5.2-7.4l0,0
		c2.2-1.4,4.7-3,6.4-6.1c0.9-1.6,1.4-3.5,1.4-5.5C62.6,70.3,62.4,69.1,62.1,68z"/>
</g>
</svg>
