<?xml version="1.0" encoding="utf-8"?>
<!-- Generator: Adobe Illustrator 27.2.0, SVG Export Plug-In . SVG Version: 6.00 Build 0)  -->
<svg version="1.1" id="Layer_1" xmlns="http://www.w3.org/2000/svg" xmlns:xlink="http://www.w3.org/1999/xlink" x="0px" y="0px"
	 viewBox="0 0 226.8 334.9" style="enable-background:new 0 0 226.8 334.9;" xml:space="preserve">
<style type="text/css">
	.st0{fill:none;stroke:#FFD18E;stroke-width:3;stroke-linecap:round;stroke-miterlimit:10;stroke-dasharray:0,0,0,7.95;}
	.st1{fill:none;stroke:#FFD18E;stroke-width:2;stroke-linecap:round;stroke-linejoin:round;}
	.st2{fill:none;stroke:#FFD18E;stroke-width:0.5;stroke-linecap:round;stroke-linejoin:round;}
	.st3{fill:#FFD18E;}
	.st4{fill:none;stroke:#FFD18E;stroke-width:3;stroke-linecap:round;stroke-miterlimit:10;stroke-dasharray:0,0,0,8;}
	.st5{clip-path:url(#SVGID_00000123404154624795509580000005381139486157724074_);}
	.st6{clip-path:url(#SVGID_00000087398995047157923460000004994700874749035182_);}
	.st7{clip-path:url(#SVGID_00000052786317812851225280000009932422113363393160_);}
	.st8{clip-path:url(#SVGID_00000121998301946863101890000016332470433021120670_);}
	.st9{clip-path:url(#SVGID_00000072244718684046590890000006161510286417402773_);}
	.st10{clip-path:url(#SVGID_00000056389742632567584230000004377262374473795754_);}
	.st11{clip-path:url(#SVGID_00000119822550949272303430000015080486391882797702_);}
	.st12{clip-path:url(#SVGID_00000068662685779101217280000008177825119535055275_);}
</style>
<ellipse class="st0" cx="113.4" cy="167.4" rx="74.3" ry="70.7"/>
<polygon class="st1" points="177,167.4 113.4,228 49.8,167.4 113.4,106.9 "/>
<polygon class="st2" points="172,167.4 113.4,223.2 54.7,167.4 113.4,111.6 "/>
<g>
	<g>
		<rect x="176.7" y="35.8" class="st1" width="20.2" height="19.3"/>
		<rect x="182" y="40.9" class="st3" width="9.7" height="9.2"/>
		<rect x="203.9" y="20.1" class="st3" width="9.7" height="9.2"/>
		<ellipse class="st1" cx="186.8" cy="45.5" rx="14.3" ry="13.6"/>
		<path class="st2" d="M169.7,29.1c-9.5,9-9.5,23.6,0,32.7c9.5,9,24.8,9,34.3,0"/>
		<path class="st4" d="M166.9,26.5c-11,10.5-11,27.4,0,37.9c11,10.5,28.8,10.5,39.9,0"/>
		<ellipse class="st1" cx="186.8" cy="45.5" rx="21.2" ry="20.1"/>
		<g>
			<defs>
				<ellipse id="SVGID_1_" cx="186.8" cy="45.5" rx="21.2" ry="20.1"/>
			</defs>
			<clipPath id="SVGID_00000075880246138333888580000012781885011654682276_">
				<use xlink:href="#SVGID_1_"  style="overflow:visible;"/>
			</clipPath>
			<g style="clip-path:url(#SVGID_00000075880246138333888580000012781885011654682276_);">
				<g>
					<line class="st2" x1="176.7" y1="55.1" x2="157.7" y2="73.2"/>
					<line class="st2" x1="179" y1="56.9" x2="164.4" y2="78.3"/>
					<line class="st2" x1="181.7" y1="58.3" x2="172.1" y2="82"/>
					<line class="st2" x1="184.6" y1="59" x2="180.4" y2="84.1"/>
					<line class="st2" x1="187.6" y1="59.1" x2="189" y2="84.6"/>
					<line class="st2" x1="190.6" y1="58.7" x2="197.5" y2="83.3"/>
					<line class="st2" x1="193.4" y1="57.7" x2="205.5" y2="80.4"/>
					<line class="st2" x1="195.9" y1="56.1" x2="212.7" y2="75.9"/>
					<line class="st2" x1="198" y1="54.1" x2="218.8" y2="70.1"/>
					<line class="st2" x1="199.7" y1="51.7" x2="223.5" y2="63.2"/>
					<line class="st2" x1="200.7" y1="49" x2="226.6" y2="55.6"/>
					<line class="st2" x1="201.2" y1="46.2" x2="227.9" y2="47.5"/>
					<line class="st2" x1="201.1" y1="43.3" x2="227.5" y2="39.3"/>
					<line class="st2" x1="200.3" y1="40.6" x2="225.2" y2="31.4"/>
					<line class="st2" x1="198.9" y1="38" x2="221.4" y2="24.1"/>
					<line class="st2" x1="197" y1="35.8" x2="215.9" y2="17.8"/>
					<line class="st2" x1="194.7" y1="34" x2="209.3" y2="12.6"/>
					<line class="st2" x1="192" y1="32.7" x2="201.6" y2="8.9"/>
					<line class="st2" x1="189.1" y1="31.9" x2="193.3" y2="6.8"/>
					<line class="st2" x1="186.1" y1="31.8" x2="184.7" y2="6.4"/>
					<line class="st2" x1="183.1" y1="32.2" x2="176.2" y2="7.7"/>
					<line class="st2" x1="180.3" y1="33.3" x2="168.2" y2="10.6"/>
					<line class="st2" x1="177.8" y1="34.8" x2="160.9" y2="15"/>
					<line class="st2" x1="175.7" y1="36.9" x2="154.9" y2="20.8"/>
					<line class="st2" x1="174" y1="39.3" x2="150.2" y2="27.7"/>
					<line class="st2" x1="172.9" y1="41.9" x2="147.1" y2="35.3"/>
					<line class="st2" x1="172.5" y1="44.8" x2="145.7" y2="43.4"/>
					<line class="st2" x1="172.6" y1="47.6" x2="146.2" y2="51.6"/>
					<line class="st2" x1="173.4" y1="50.4" x2="148.4" y2="59.5"/>
					<line class="st2" x1="174.8" y1="52.9" x2="152.3" y2="66.8"/>
				</g>
			</g>
		</g>
		<polyline class="st1" points="177,36.1 164.4,24.2 175,24.2 167.1,16.7 217.3,16.7 217.3,16.7 217.3,64.4 209.5,56.9 209.5,67 
			197,55.1 		"/>
		<polyline class="st2" points="212.2,76.6 212.2,21.4 154.1,21.4 154.1,34 164.4,24.2 		"/>
		<polyline class="st2" points="212.2,76.6 199.1,76.8 209.5,67 		"/>
	</g>
	<g>
		<rect x="176.7" y="279.8" class="st1" width="20.2" height="19.3"/>
		<rect x="182" y="284.8" class="st3" width="9.7" height="9.2"/>
		<rect x="203.9" y="305.6" class="st3" width="9.7" height="9.2"/>
		<ellipse class="st1" cx="186.8" cy="289.4" rx="14.3" ry="13.6"/>
		<path class="st2" d="M169.7,305.7c-9.5-9-9.5-23.6,0-32.7c9.5-9,24.8-9,34.3,0"/>
		<path class="st4" d="M166.9,308.4c-11-10.5-11-27.4,0-37.9c11-10.5,28.8-10.5,39.9,0"/>
		<ellipse class="st1" cx="186.8" cy="289.4" rx="21.2" ry="20.1"/>
		<g>
			<defs>
				<ellipse id="SVGID_00000029011990895589761980000002550577287658769315_" cx="186.8" cy="289.4" rx="21.2" ry="20.1"/>
			</defs>
			<clipPath id="SVGID_00000031888305850521313660000003705612447573076652_">
				<use xlink:href="#SVGID_00000029011990895589761980000002550577287658769315_"  style="overflow:visible;"/>
			</clipPath>
			<g style="clip-path:url(#SVGID_00000031888305850521313660000003705612447573076652_);">
				<g>
					<line class="st2" x1="176.7" y1="279.7" x2="157.7" y2="261.7"/>
					<line class="st2" x1="179" y1="277.9" x2="164.4" y2="256.6"/>
					<line class="st2" x1="181.7" y1="276.6" x2="172.1" y2="252.9"/>
					<line class="st2" x1="184.6" y1="275.9" x2="180.4" y2="250.7"/>
					<line class="st2" x1="187.6" y1="275.7" x2="189" y2="250.3"/>
					<line class="st2" x1="190.6" y1="276.2" x2="197.5" y2="251.6"/>
					<line class="st2" x1="193.4" y1="277.2" x2="205.5" y2="254.5"/>
					<line class="st2" x1="195.9" y1="278.8" x2="212.7" y2="259"/>
					<line class="st2" x1="198" y1="280.8" x2="218.8" y2="264.8"/>
					<line class="st2" x1="199.7" y1="283.2" x2="223.5" y2="271.6"/>
					<line class="st2" x1="200.7" y1="285.9" x2="226.6" y2="279.3"/>
					<line class="st2" x1="201.2" y1="288.7" x2="227.9" y2="287.4"/>
					<line class="st2" x1="201.1" y1="291.6" x2="227.5" y2="295.5"/>
					<line class="st2" x1="200.3" y1="294.3" x2="225.2" y2="303.4"/>
					<line class="st2" x1="198.9" y1="296.9" x2="221.4" y2="310.7"/>
					<line class="st2" x1="197" y1="299.1" x2="215.9" y2="317.1"/>
					<line class="st2" x1="194.7" y1="300.9" x2="209.3" y2="322.2"/>
					<line class="st2" x1="192" y1="302.2" x2="201.6" y2="326"/>
					<line class="st2" x1="189.1" y1="302.9" x2="193.3" y2="328.1"/>
					<line class="st2" x1="186.1" y1="303.1" x2="184.7" y2="328.5"/>
					<line class="st2" x1="183.1" y1="302.6" x2="176.2" y2="327.2"/>
					<line class="st2" x1="180.3" y1="301.6" x2="168.2" y2="324.3"/>
					<line class="st2" x1="177.8" y1="300.1" x2="160.9" y2="319.8"/>
					<line class="st2" x1="175.7" y1="298" x2="154.9" y2="314.1"/>
					<line class="st2" x1="174" y1="295.6" x2="150.2" y2="307.2"/>
					<line class="st2" x1="172.9" y1="293" x2="147.1" y2="299.5"/>
					<line class="st2" x1="172.5" y1="290.1" x2="145.7" y2="291.5"/>
					<line class="st2" x1="172.6" y1="287.3" x2="146.2" y2="283.3"/>
					<line class="st2" x1="173.4" y1="284.5" x2="148.4" y2="275.4"/>
					<line class="st2" x1="174.8" y1="282" x2="152.3" y2="268.1"/>
				</g>
			</g>
		</g>
		<polyline class="st1" points="177,298.8 164.4,310.7 175,310.7 167.1,318.2 217.3,318.2 217.3,318.2 217.3,270.4 209.5,277.9 
			209.5,267.9 197,279.8 		"/>
		<polyline class="st2" points="212.2,258.2 212.2,313.5 154.1,313.5 154.1,300.9 164.4,310.7 		"/>
		<polyline class="st2" points="212.2,258.2 199.1,258 209.5,267.9 		"/>
	</g>
	<g>
		<rect x="29.8" y="279.8" class="st1" width="20.2" height="19.3"/>
		<rect x="35.1" y="284.8" class="st3" width="9.7" height="9.2"/>
		<rect x="13.2" y="305.6" class="st3" width="9.7" height="9.2"/>
		<ellipse class="st1" cx="39.9" cy="289.4" rx="14.3" ry="13.6"/>
		<path class="st2" d="M57.1,305.7c9.5-9,9.5-23.6,0-32.7s-24.8-9-34.3,0"/>
		<path class="st4" d="M59.8,308.4c11-10.5,11-27.4,0-37.9C48.8,260,31,260,20,270.5"/>
		<ellipse class="st1" cx="39.9" cy="289.4" rx="21.2" ry="20.1"/>
		<g>
			<defs>
				<ellipse id="SVGID_00000104675085205620762670000001795185806365512362_" cx="39.9" cy="289.4" rx="21.2" ry="20.1"/>
			</defs>
			<clipPath id="SVGID_00000045618317489887294620000009463010674744040107_">
				<use xlink:href="#SVGID_00000104675085205620762670000001795185806365512362_"  style="overflow:visible;"/>
			</clipPath>
			<g style="clip-path:url(#SVGID_00000045618317489887294620000009463010674744040107_);">
				<g>
					<line class="st2" x1="50.1" y1="279.7" x2="69" y2="261.7"/>
					<line class="st2" x1="47.8" y1="277.9" x2="62.3" y2="256.6"/>
					<line class="st2" x1="45.1" y1="276.6" x2="54.7" y2="252.9"/>
					<line class="st2" x1="42.2" y1="275.9" x2="46.4" y2="250.7"/>
					<line class="st2" x1="39.2" y1="275.7" x2="37.8" y2="250.3"/>
					<line class="st2" x1="36.2" y1="276.2" x2="29.3" y2="251.6"/>
					<line class="st2" x1="33.4" y1="277.2" x2="21.2" y2="254.5"/>
					<line class="st2" x1="30.9" y1="278.8" x2="14" y2="259"/>
					<line class="st2" x1="28.7" y1="280.8" x2="7.9" y2="264.8"/>
					<line class="st2" x1="27.1" y1="283.2" x2="3.3" y2="271.6"/>
					<line class="st2" x1="26" y1="285.9" x2="0.2" y2="279.3"/>
					<line class="st2" x1="25.6" y1="288.7" x2="-1.2" y2="287.4"/>
					<line class="st2" x1="25.7" y1="291.6" x2="-0.7" y2="295.5"/>
					<line class="st2" x1="26.5" y1="294.3" x2="1.5" y2="303.4"/>
					<line class="st2" x1="27.9" y1="296.9" x2="5.4" y2="310.7"/>
					<line class="st2" x1="29.7" y1="299.1" x2="10.8" y2="317.1"/>
					<line class="st2" x1="32.1" y1="300.9" x2="17.5" y2="322.2"/>
					<line class="st2" x1="34.8" y1="302.2" x2="25.2" y2="326"/>
					<line class="st2" x1="37.7" y1="302.9" x2="33.5" y2="328.1"/>
					<line class="st2" x1="40.7" y1="303.1" x2="42.1" y2="328.5"/>
					<line class="st2" x1="43.6" y1="302.6" x2="50.6" y2="327.2"/>
					<line class="st2" x1="46.5" y1="301.6" x2="58.6" y2="324.3"/>
					<line class="st2" x1="49" y1="300.1" x2="65.8" y2="319.8"/>
					<line class="st2" x1="51.1" y1="298" x2="71.9" y2="314.1"/>
					<line class="st2" x1="52.8" y1="295.6" x2="76.6" y2="307.2"/>
					<line class="st2" x1="53.8" y1="293" x2="79.7" y2="299.5"/>
					<line class="st2" x1="54.3" y1="290.1" x2="81" y2="291.5"/>
					<line class="st2" x1="54.1" y1="287.3" x2="80.6" y2="283.3"/>
					<line class="st2" x1="53.4" y1="284.5" x2="78.3" y2="275.4"/>
					<line class="st2" x1="52" y1="282" x2="74.4" y2="268.1"/>
				</g>
			</g>
		</g>
		<polyline class="st1" points="49.8,298.8 62.3,310.7 51.8,310.7 59.6,318.2 9.4,318.2 9.4,318.2 9.4,270.4 17.3,277.9 17.3,267.9 
			29.8,279.8 		"/>
		<polyline class="st2" points="14.6,258.2 14.6,313.5 72.7,313.5 72.7,300.9 62.3,310.7 		"/>
		<polyline class="st2" points="14.6,258.2 27.7,258 17.3,267.9 		"/>
	</g>
	<g>
		<rect x="29.8" y="35.8" class="st1" width="20.2" height="19.3"/>
		<rect x="35.1" y="40.9" class="st3" width="9.7" height="9.2"/>
		<rect x="13.2" y="20.1" class="st3" width="9.7" height="9.2"/>
		<ellipse class="st1" cx="39.9" cy="45.5" rx="14.3" ry="13.6"/>
		<path class="st2" d="M57.1,29.1c9.5,9,9.5,23.6,0,32.7s-24.8,9-34.3,0"/>
		<path class="st4" d="M59.8,26.5c11,10.5,11,27.4,0,37.9S31,74.9,20,64.4"/>
		<ellipse class="st1" cx="39.9" cy="45.5" rx="21.2" ry="20.1"/>
		<g>
			<defs>
				<ellipse id="SVGID_00000174591949012567135090000001791753166317817521_" cx="39.9" cy="45.5" rx="21.2" ry="20.1"/>
			</defs>
			<clipPath id="SVGID_00000077284373115228796220000002869999979584968842_">
				<use xlink:href="#SVGID_00000174591949012567135090000001791753166317817521_"  style="overflow:visible;"/>
			</clipPath>
			<g style="clip-path:url(#SVGID_00000077284373115228796220000002869999979584968842_);">
				<g>
					<line class="st2" x1="50.1" y1="55.1" x2="69" y2="73.2"/>
					<line class="st2" x1="47.8" y1="56.9" x2="62.3" y2="78.3"/>
					<line class="st2" x1="45.1" y1="58.3" x2="54.7" y2="82"/>
					<line class="st2" x1="42.2" y1="59" x2="46.4" y2="84.1"/>
					<line class="st2" x1="39.2" y1="59.1" x2="37.8" y2="84.6"/>
					<line class="st2" x1="36.2" y1="58.7" x2="29.3" y2="83.3"/>
					<line class="st2" x1="33.4" y1="57.7" x2="21.2" y2="80.4"/>
					<line class="st2" x1="30.9" y1="56.1" x2="14" y2="75.9"/>
					<line class="st2" x1="28.7" y1="54.1" x2="7.9" y2="70.1"/>
					<line class="st2" x1="27.1" y1="51.7" x2="3.3" y2="63.2"/>
					<line class="st2" x1="26" y1="49" x2="0.2" y2="55.6"/>
					<line class="st2" x1="25.6" y1="46.2" x2="-1.2" y2="47.5"/>
					<line class="st2" x1="25.7" y1="43.3" x2="-0.7" y2="39.3"/>
					<line class="st2" x1="26.5" y1="40.6" x2="1.5" y2="31.4"/>
					<line class="st2" x1="27.9" y1="38" x2="5.4" y2="24.1"/>
					<line class="st2" x1="29.7" y1="35.8" x2="10.8" y2="17.8"/>
					<line class="st2" x1="32.1" y1="34" x2="17.5" y2="12.6"/>
					<line class="st2" x1="34.8" y1="32.7" x2="25.2" y2="8.9"/>
					<line class="st2" x1="37.7" y1="31.9" x2="33.5" y2="6.8"/>
					<line class="st2" x1="40.7" y1="31.8" x2="42.1" y2="6.4"/>
					<line class="st2" x1="43.6" y1="32.2" x2="50.6" y2="7.7"/>
					<line class="st2" x1="46.5" y1="33.3" x2="58.6" y2="10.6"/>
					<line class="st2" x1="49" y1="34.8" x2="65.8" y2="15"/>
					<line class="st2" x1="51.1" y1="36.9" x2="71.9" y2="20.8"/>
					<line class="st2" x1="52.8" y1="39.3" x2="76.6" y2="27.7"/>
					<line class="st2" x1="53.8" y1="41.9" x2="79.7" y2="35.3"/>
					<line class="st2" x1="54.3" y1="44.8" x2="81" y2="43.4"/>
					<line class="st2" x1="54.1" y1="47.6" x2="80.6" y2="51.6"/>
					<line class="st2" x1="53.4" y1="50.4" x2="78.3" y2="59.5"/>
					<line class="st2" x1="52" y1="52.9" x2="74.4" y2="66.8"/>
				</g>
			</g>
		</g>
		<polyline class="st1" points="49.8,36.1 62.3,24.2 51.8,24.2 59.6,16.7 9.4,16.7 9.4,16.7 9.4,64.4 17.3,56.9 17.3,67 29.8,55.1 
					"/>
		<polyline class="st2" points="14.6,76.6 14.6,21.4 72.7,21.4 72.7,34 62.3,24.2 		"/>
		<polyline class="st2" points="14.6,76.6 27.7,76.8 17.3,67 		"/>
	</g>
</g>
<g>
	<path class="st2" d="M108.6,93.5c-38.8,2.2-70,31.6-72.8,68.4H14.6l3.9-3.7V108l-8.6,8.2"/>
	<path class="st1" d="M110.6,101.7V88c-43.9,1.3-79.2,34.9-80.8,76.6H14.6l-4.7-4.4v-53.8l30.5-29"/>
	<line class="st4" x1="14.6" y1="156.8" x2="14.6" y2="117.2"/>
</g>
<g>
	<path class="st2" d="M108.6,241.4c-38.8-2.2-70-31.6-72.8-68.4H14.6l3.9,3.7v50.2l-8.6-8.2"/>
	<path class="st1" d="M110.6,233.2v13.7c-43.9-1.3-79.2-34.9-80.8-76.6H14.6l-4.7,4.4v53.8l30.5,29"/>
	<line class="st4" x1="14.6" y1="178" x2="14.6" y2="217.7"/>
</g>
<polyline class="st1" points="217.1,261.7 217.1,239.2 204,226.8 204,108.1 217.1,95.7 217.1,73.2 "/>
<polyline class="st1" points="9.7,261.7 9.7,239.2 22.8,226.8 22.8,108.1 9.7,95.7 9.7,73.2 "/>
<g>
	<g>
		<g>
			<defs>
				<path id="SVGID_00000001639534922853477540000004978811300733260208_" d="M182.3,122.4l-0.1-0.1c-5.9-8.1-13.3-15-21.8-20.6
					l26-24.4L208,97.9C208,97.9,182.3,122.4,182.3,122.4z"/>
			</defs>
			<clipPath id="SVGID_00000171692688583218332760000008084962117988126853_">
				<use xlink:href="#SVGID_00000001639534922853477540000004978811300733260208_"  style="overflow:visible;"/>
			</clipPath>
			<g style="clip-path:url(#SVGID_00000171692688583218332760000008084962117988126853_);">
				<g>
					<line class="st2" x1="178.4" y1="126" x2="213.4" y2="92.7"/>
					<line class="st2" x1="177.6" y1="125.2" x2="212.9" y2="91.6"/>
					<line class="st2" x1="176.9" y1="124.4" x2="212.5" y2="90.6"/>
					<line class="st2" x1="176.2" y1="123.6" x2="212.1" y2="89.5"/>
					<line class="st2" x1="175.5" y1="122.8" x2="211.7" y2="88.4"/>
					<line class="st2" x1="174.8" y1="122" x2="211.2" y2="87.4"/>
					<line class="st2" x1="174.1" y1="121.3" x2="210.8" y2="86.3"/>
					<line class="st2" x1="173.3" y1="120.5" x2="210.4" y2="85.2"/>
					<line class="st2" x1="172.6" y1="119.7" x2="210" y2="84.2"/>
					<line class="st2" x1="171.9" y1="118.9" x2="209.5" y2="83.1"/>
					<line class="st2" x1="171.2" y1="118.1" x2="209.1" y2="82"/>
					<line class="st2" x1="170.5" y1="117.3" x2="208.7" y2="80.9"/>
					<line class="st2" x1="169.8" y1="116.5" x2="208.3" y2="79.9"/>
					<line class="st2" x1="169.1" y1="115.7" x2="207.9" y2="78.8"/>
					<line class="st2" x1="168.4" y1="114.9" x2="207.4" y2="77.7"/>
					<line class="st2" x1="167.6" y1="114.1" x2="207" y2="76.7"/>
					<line class="st2" x1="166.9" y1="113.3" x2="206.6" y2="75.6"/>
					<line class="st2" x1="166.2" y1="112.6" x2="206.2" y2="74.5"/>
					<line class="st2" x1="165.5" y1="111.8" x2="205.7" y2="73.5"/>
					<line class="st2" x1="164.8" y1="111" x2="205.3" y2="72.4"/>
					<line class="st2" x1="164.1" y1="110.2" x2="204.9" y2="71.3"/>
					<line class="st2" x1="163.4" y1="109.4" x2="204.5" y2="70.3"/>
					<line class="st2" x1="162.6" y1="108.6" x2="204.1" y2="69.2"/>
					<line class="st2" x1="161.9" y1="107.8" x2="203.6" y2="68.1"/>
					<line class="st2" x1="161.2" y1="107" x2="203.2" y2="67.1"/>
					<line class="st2" x1="160.5" y1="106.2" x2="202.8" y2="66"/>
					<line class="st2" x1="159.8" y1="105.4" x2="202.4" y2="64.9"/>
					<line class="st2" x1="159.1" y1="104.7" x2="202" y2="63.9"/>
					<line class="st2" x1="158.4" y1="103.9" x2="201.5" y2="62.8"/>
				</g>
			</g>
		</g>
		<g>
			<path class="st2" d="M216.9,116.1l-8.6-8.2v50.2l3.9,3.7H191c-2.9-36.8-34-66.1-72.8-68.4V61.9l36-34.2"/>
			<path class="st1" d="M160.4,101.7l26-24.4L208,97.9l8.9,8.4v53.8l-4.7,4.4h-15.3c0-0.9-0.1-1.8-0.2-2.7
				c-1.1-14.7-6.3-28.3-14.6-39.7C176.3,114.2,168.9,107.2,160.4,101.7c-12.7-8.2-27.9-13.2-44.2-13.7v13.7"/>
			<line class="st4" x1="212.2" y1="156.8" x2="212.2" y2="117.2"/>
		</g>
		<line class="st1" x1="204" y1="108.1" x2="184.9" y2="126.3"/>
		<line class="st1" x1="208" y1="97.9" x2="182.3" y2="122.4"/>
	</g>
	<g>
		<g>
			<defs>
				<path id="SVGID_00000124163331534581177340000003454516305911996606_" d="M182.3,212.5l-0.1,0.1c-5.9,8.1-13.3,15-21.8,20.6
					l26,24.4L208,237L182.3,212.5L182.3,212.5z"/>
			</defs>
			<clipPath id="SVGID_00000072243475873416700790000013211318073602985151_">
				<use xlink:href="#SVGID_00000124163331534581177340000003454516305911996606_"  style="overflow:visible;"/>
			</clipPath>
			<g style="clip-path:url(#SVGID_00000072243475873416700790000013211318073602985151_);">
				<g>
					<line class="st2" x1="178.4" y1="208.9" x2="213.4" y2="242.2"/>
					<line class="st2" x1="177.6" y1="209.7" x2="212.9" y2="243.3"/>
					<line class="st2" x1="176.9" y1="210.5" x2="212.5" y2="244.3"/>
					<line class="st2" x1="176.2" y1="211.3" x2="212.1" y2="245.4"/>
					<line class="st2" x1="175.5" y1="212" x2="211.7" y2="246.5"/>
					<line class="st2" x1="174.8" y1="212.8" x2="211.2" y2="247.5"/>
					<line class="st2" x1="174.1" y1="213.6" x2="210.8" y2="248.6"/>
					<line class="st2" x1="173.3" y1="214.4" x2="210.4" y2="249.7"/>
					<line class="st2" x1="172.6" y1="215.2" x2="210" y2="250.7"/>
					<line class="st2" x1="171.9" y1="216" x2="209.5" y2="251.8"/>
					<line class="st2" x1="171.2" y1="216.8" x2="209.1" y2="252.9"/>
					<line class="st2" x1="170.5" y1="217.6" x2="208.7" y2="253.9"/>
					<line class="st2" x1="169.8" y1="218.4" x2="208.3" y2="255"/>
					<line class="st2" x1="169.1" y1="219.2" x2="207.9" y2="256.1"/>
					<line class="st2" x1="168.4" y1="220" x2="207.4" y2="257.1"/>
					<line class="st2" x1="167.6" y1="220.7" x2="207" y2="258.2"/>
					<line class="st2" x1="166.9" y1="221.5" x2="206.6" y2="259.3"/>
					<line class="st2" x1="166.2" y1="222.3" x2="206.2" y2="260.3"/>
					<line class="st2" x1="165.5" y1="223.1" x2="205.7" y2="261.4"/>
					<line class="st2" x1="164.8" y1="223.9" x2="205.3" y2="262.5"/>
					<line class="st2" x1="164.1" y1="224.7" x2="204.9" y2="263.5"/>
					<line class="st2" x1="163.4" y1="225.5" x2="204.5" y2="264.6"/>
					<line class="st2" x1="162.6" y1="226.3" x2="204.1" y2="265.7"/>
					<line class="st2" x1="161.9" y1="227.1" x2="203.6" y2="266.8"/>
					<line class="st2" x1="161.2" y1="227.9" x2="203.2" y2="267.8"/>
					<line class="st2" x1="160.5" y1="228.6" x2="202.8" y2="268.9"/>
					<line class="st2" x1="159.8" y1="229.4" x2="202.4" y2="270"/>
					<line class="st2" x1="159.1" y1="230.2" x2="202" y2="271"/>
					<line class="st2" x1="158.4" y1="231" x2="201.5" y2="272.1"/>
				</g>
			</g>
		</g>
		<g>
			<path class="st2" d="M216.9,218.7l-8.6,8.2v-50.2l3.9-3.7H191c-2.9,36.8-34,66.1-72.8,68.4v31.6l35.9,34.2"/>
			<path class="st1" d="M116.1,233.2v13.7c16.4-0.5,31.6-5.5,44.2-13.7c8.5-5.5,15.9-12.5,21.8-20.6c8.3-11.4,13.6-25,14.6-39.7
				c0.1-0.9,0.1-1.8,0.2-2.7h15.3l4.7,4.4v53.8L208,237l-21.6,20.6l-26-24.4"/>
			<line class="st4" x1="212.2" y1="178" x2="212.2" y2="217.7"/>
		</g>
		<line class="st1" x1="204" y1="226.8" x2="184.9" y2="208.6"/>
		<line class="st1" x1="208" y1="237" x2="182.3" y2="212.5"/>
	</g>
	<g>
		<g>
			<defs>
				<path id="SVGID_00000163761523532767049360000001954559829052752048_" d="M44.5,122.4l0.1-0.1c5.9-8.1,13.3-15,21.8-20.6
					l-26-24.4L18.8,97.9C18.8,97.9,44.5,122.4,44.5,122.4z"/>
			</defs>
			<clipPath id="SVGID_00000096022176598876781710000004961945681615594902_">
				<use xlink:href="#SVGID_00000163761523532767049360000001954559829052752048_"  style="overflow:visible;"/>
			</clipPath>
			<g style="clip-path:url(#SVGID_00000096022176598876781710000004961945681615594902_);">
				<g>
					<line class="st2" x1="48.4" y1="126" x2="13.4" y2="92.7"/>
					<line class="st2" x1="49.1" y1="125.2" x2="13.8" y2="91.6"/>
					<line class="st2" x1="49.8" y1="124.4" x2="14.3" y2="90.6"/>
					<line class="st2" x1="50.6" y1="123.6" x2="14.7" y2="89.5"/>
					<line class="st2" x1="51.3" y1="122.8" x2="15.1" y2="88.4"/>
					<line class="st2" x1="52" y1="122" x2="15.5" y2="87.4"/>
					<line class="st2" x1="52.7" y1="121.3" x2="15.9" y2="86.3"/>
					<line class="st2" x1="53.4" y1="120.5" x2="16.4" y2="85.2"/>
					<line class="st2" x1="54.1" y1="119.7" x2="16.8" y2="84.2"/>
					<line class="st2" x1="54.8" y1="118.9" x2="17.2" y2="83.1"/>
					<line class="st2" x1="55.6" y1="118.1" x2="17.6" y2="82"/>
					<line class="st2" x1="56.3" y1="117.3" x2="18.1" y2="80.9"/>
					<line class="st2" x1="57" y1="116.5" x2="18.5" y2="79.9"/>
					<line class="st2" x1="57.7" y1="115.7" x2="18.9" y2="78.8"/>
					<line class="st2" x1="58.4" y1="114.9" x2="19.3" y2="77.7"/>
					<line class="st2" x1="59.1" y1="114.1" x2="19.7" y2="76.7"/>
					<line class="st2" x1="59.8" y1="113.3" x2="20.2" y2="75.6"/>
					<line class="st2" x1="60.5" y1="112.6" x2="20.6" y2="74.5"/>
					<line class="st2" x1="61.3" y1="111.8" x2="21" y2="73.5"/>
					<line class="st2" x1="62" y1="111" x2="21.4" y2="72.4"/>
					<line class="st2" x1="62.7" y1="110.2" x2="21.9" y2="71.3"/>
					<line class="st2" x1="63.4" y1="109.4" x2="22.3" y2="70.3"/>
					<line class="st2" x1="64.1" y1="108.6" x2="22.7" y2="69.2"/>
					<line class="st2" x1="64.8" y1="107.8" x2="23.1" y2="68.1"/>
					<line class="st2" x1="65.5" y1="107" x2="23.6" y2="67.1"/>
					<line class="st2" x1="66.3" y1="106.2" x2="24" y2="66"/>
					<line class="st2" x1="67" y1="105.4" x2="24.4" y2="64.9"/>
					<line class="st2" x1="67.7" y1="104.7" x2="24.8" y2="63.9"/>
					<line class="st2" x1="68.4" y1="103.9" x2="25.2" y2="62.8"/>
				</g>
			</g>
		</g>
		<g>
			<path class="st2" d="M9.9,116.1l8.6-8.2v50.2l-3.9,3.7h21.2c2.9-36.8,34-66.1,72.8-68.4V61.9L72.7,27.7"/>
			<path class="st1" d="M110.6,101.7V88c-16.4,0.5-31.6,5.5-44.2,13.7c-8.5,5.5-15.9,12.5-21.8,20.6c-8.3,11.4-13.6,25-14.6,39.7
				c-0.1,0.9-0.1,1.8-0.2,2.7H14.6l-4.7-4.4v-53.8l8.9-8.4l21.6-20.6l26,24.4"/>
			<line class="st4" x1="14.6" y1="156.8" x2="14.6" y2="117.2"/>
		</g>
		<line class="st1" x1="22.8" y1="108.1" x2="41.9" y2="126.3"/>
		<line class="st1" x1="18.8" y1="97.9" x2="44.5" y2="122.4"/>
	</g>
	<g>
		<g>
			<defs>
				<path id="SVGID_00000080914900804619064850000005043661295025690027_" d="M44.5,212.5l0.1,0.1c5.9,8.1,13.3,15,21.8,20.6
					l-26,24.4L18.8,237L44.5,212.5L44.5,212.5z"/>
			</defs>
			<clipPath id="SVGID_00000134232968697228858500000007867490817917462660_">
				<use xlink:href="#SVGID_00000080914900804619064850000005043661295025690027_"  style="overflow:visible;"/>
			</clipPath>
			<g style="clip-path:url(#SVGID_00000134232968697228858500000007867490817917462660_);">
				<g>
					<line class="st2" x1="48.4" y1="208.9" x2="13.4" y2="242.2"/>
					<line class="st2" x1="49.1" y1="209.7" x2="13.8" y2="243.3"/>
					<line class="st2" x1="49.8" y1="210.5" x2="14.3" y2="244.3"/>
					<line class="st2" x1="50.6" y1="211.3" x2="14.7" y2="245.4"/>
					<line class="st2" x1="51.3" y1="212" x2="15.1" y2="246.5"/>
					<line class="st2" x1="52" y1="212.8" x2="15.5" y2="247.5"/>
					<line class="st2" x1="52.7" y1="213.6" x2="15.9" y2="248.6"/>
					<line class="st2" x1="53.4" y1="214.4" x2="16.4" y2="249.7"/>
					<line class="st2" x1="54.1" y1="215.2" x2="16.8" y2="250.7"/>
					<line class="st2" x1="54.8" y1="216" x2="17.2" y2="251.8"/>
					<line class="st2" x1="55.6" y1="216.8" x2="17.6" y2="252.9"/>
					<line class="st2" x1="56.3" y1="217.6" x2="18.1" y2="253.9"/>
					<line class="st2" x1="57" y1="218.4" x2="18.5" y2="255"/>
					<line class="st2" x1="57.7" y1="219.2" x2="18.9" y2="256.1"/>
					<line class="st2" x1="58.4" y1="220" x2="19.3" y2="257.1"/>
					<line class="st2" x1="59.1" y1="220.7" x2="19.7" y2="258.2"/>
					<line class="st2" x1="59.8" y1="221.5" x2="20.2" y2="259.3"/>
					<line class="st2" x1="60.5" y1="222.3" x2="20.6" y2="260.3"/>
					<line class="st2" x1="61.3" y1="223.1" x2="21" y2="261.4"/>
					<line class="st2" x1="62" y1="223.9" x2="21.4" y2="262.5"/>
					<line class="st2" x1="62.7" y1="224.7" x2="21.9" y2="263.5"/>
					<line class="st2" x1="63.4" y1="225.5" x2="22.3" y2="264.6"/>
					<line class="st2" x1="64.1" y1="226.3" x2="22.7" y2="265.7"/>
					<line class="st2" x1="64.8" y1="227.1" x2="23.1" y2="266.8"/>
					<line class="st2" x1="65.5" y1="227.9" x2="23.6" y2="267.8"/>
					<line class="st2" x1="66.3" y1="228.6" x2="24" y2="268.9"/>
					<line class="st2" x1="67" y1="229.4" x2="24.4" y2="270"/>
					<line class="st2" x1="67.7" y1="230.2" x2="24.8" y2="271"/>
					<line class="st2" x1="68.4" y1="231" x2="25.2" y2="272.1"/>
				</g>
			</g>
		</g>
		<g>
			<path class="st2" d="M9.9,218.7l8.6,8.2v-50.2l-3.9-3.7h21.2c2.9,36.8,34,66.1,72.8,68.4v31.6l-35.9,34.2"/>
			<path class="st1" d="M66.4,233.2l-26,24.4L18.8,237l-8.9-8.4v-53.8l4.7-4.4h15.3c0,0.9,0.1,1.8,0.2,2.7
				c1.1,14.7,6.3,28.3,14.6,39.7C50.5,220.7,57.9,227.7,66.4,233.2c12.7,8.2,27.9,13.2,44.2,13.7v-13.7"/>
			<line class="st4" x1="14.6" y1="178" x2="14.6" y2="217.7"/>
		</g>
		<line class="st1" x1="22.8" y1="226.8" x2="41.9" y2="208.6"/>
		<line class="st1" x1="18.8" y1="237" x2="44.5" y2="212.5"/>
	</g>
</g>
<g>
	<g>
		<polygon class="st3" points="132.4,24.3 132.4,11.9 119.4,11.9 		"/>
		<polygon class="st3" points="148.6,11.9 135.6,11.9 135.6,24.3 		"/>
	</g>
	<g>
		<polygon class="st3" points="94.4,24.3 94.4,11.9 107.4,11.9 		"/>
		<polygon class="st3" points="78.2,11.9 91.2,11.9 91.2,24.3 		"/>
	</g>
</g>
<g>
	<g>
		<g>
			<polygon class="st3" points="211.7,80.8 204.3,87.8 211.7,94.8 			"/>
			<polygon class="st3" points="195.2,79.1 202.5,86.1 209.9,79.1 			"/>
		</g>
		<g>
			<polygon class="st3" points="15.1,80.8 22.4,87.8 15.1,94.8 			"/>
			<polygon class="st3" points="31.6,79.1 24.2,86.1 16.9,79.1 			"/>
		</g>
	</g>
	<g>
		<g>
			<polygon class="st3" points="211.7,254.1 204.3,247.1 211.7,240.1 			"/>
			<polygon class="st3" points="195.2,255.8 202.5,248.8 209.9,255.8 			"/>
		</g>
		<g>
			<polygon class="st3" points="15.1,254.1 22.4,247.1 15.1,240.1 			"/>
			<polygon class="st3" points="31.6,255.8 24.2,248.8 16.9,255.8 			"/>
		</g>
	</g>
</g>
<g>
	<g>
		<path class="st1" d="M36.7,121.4c-7.9,11.8-12.8,25.6-13.8,40.5"/>
		<path class="st1" d="M165.5,96.9c-14.7-9.9-32.7-15.7-52.1-15.7S76,87,61.3,96.9"/>
		<path class="st1" d="M203.8,161.9c-1-14.8-5.9-28.6-13.8-40.4"/>
	</g>
	<g>
		<path class="st1" d="M36.7,213.5C28.9,201.6,23.9,187.8,23,173"/>
		<path class="st1" d="M165.5,238c-14.7,9.9-32.7,15.7-52.1,15.7S76,247.9,61.3,238"/>
		<path class="st1" d="M203.8,173c-1,14.8-5.9,28.6-13.8,40.4"/>
	</g>
</g>
<g>
	<g>
		<line class="st1" x1="113.4" y1="38.6" x2="113.4" y2="81.2"/>
		<polyline class="st1" points="63.4,8.9 94.5,38.6 132.2,38.6 163.4,8.9 		"/>
		<polyline class="st2" points="70.1,9.3 103.9,41.5 113.4,50.4 122.9,41.5 156.7,9.3 		"/>
		<polygon class="st1" points="132.2,38.6 113.4,56.5 94.6,38.6 113.4,20.7 		"/>
		<polyline class="st2" points="89.6,33.8 113.4,11.2 137.2,33.8 		"/>
	</g>
	<g>
		<line class="st1" x1="113.4" y1="296.3" x2="113.4" y2="253.7"/>
		<polyline class="st1" points="63.4,326 94.5,296.3 132.2,296.3 163.4,326 		"/>
		<polyline class="st2" points="70.1,325.6 103.9,293.4 113.4,284.4 122.9,293.4 156.7,325.6 		"/>
		<polygon class="st1" points="113.4,314.2 94.6,296.3 113.4,278.4 132.2,296.3 		"/>
		<polyline class="st2" points="89.6,301 113.4,323.7 137.2,301 		"/>
	</g>
</g>
<g>
	<g>
		<polygon class="st3" points="132.4,310.6 132.4,323 119.4,323 		"/>
		<polygon class="st3" points="148.6,323 135.6,323 135.6,310.6 		"/>
	</g>
	<g>
		<polygon class="st3" points="94.4,310.6 94.4,323 107.4,323 		"/>
		<polygon class="st3" points="78.2,323 91.2,323 91.2,310.6 		"/>
	</g>
</g>
<g>
	<g>
		<polyline class="st1" points="160.4,93.7 178.3,76.6 154.1,76.6 154.1,39.3 123.5,68.5 123.5,88.5 		"/>
		<polyline class="st1" points="66.4,93.7 48.4,76.6 72.7,76.6 72.7,39.3 103.3,68.5 103.3,88.5 		"/>
	</g>
	<g>
		<polyline class="st1" points="160.4,241.2 178.3,258.3 154.1,258.3 154.1,295.6 123.5,266.4 123.5,246.4 		"/>
		<polyline class="st1" points="66.4,241.2 48.4,258.3 72.7,258.3 72.7,295.6 103.3,266.4 103.3,246.4 		"/>
	</g>
</g>
<g>
	<g>
		<path class="st4" d="M164.3,89.9c-12.1-7.2-26-11.9-40.9-13.4"/>
		<g>
			<line class="st2" x1="149.3" y1="43.9" x2="149.3" y2="80"/>
			<line class="st2" x1="145" y1="48.2" x2="145" y2="78.9"/>
			<line class="st2" x1="140.7" y1="52.1" x2="140.7" y2="77.7"/>
			<line class="st2" x1="136.4" y1="56.2" x2="136.4" y2="76.5"/>
			<line class="st2" x1="132.1" y1="60.3" x2="132.1" y2="75.3"/>
			<line class="st2" x1="127.8" y1="64.4" x2="127.8" y2="74.2"/>
		</g>
	</g>
	<g>
		<path class="st4" d="M62.4,89.9c12.1-7.2,26-11.9,40.9-13.4"/>
		<g>
			<line class="st2" x1="77.5" y1="43.9" x2="77.5" y2="80"/>
			<line class="st2" x1="81.8" y1="48.2" x2="81.8" y2="78.9"/>
			<line class="st2" x1="86.1" y1="52.1" x2="86.1" y2="77.7"/>
			<line class="st2" x1="90.4" y1="56.2" x2="90.4" y2="76.5"/>
			<line class="st2" x1="94.7" y1="60.3" x2="94.7" y2="75.3"/>
			<line class="st2" x1="99" y1="64.4" x2="99" y2="74.2"/>
		</g>
	</g>
	<g>
		<path class="st4" d="M164.3,245c-12.1,7.2-26,11.9-40.9,13.4"/>
		<g>
			<line class="st2" x1="149.3" y1="291" x2="149.3" y2="254.8"/>
			<line class="st2" x1="145" y1="286.7" x2="145" y2="256"/>
			<line class="st2" x1="140.7" y1="282.8" x2="140.7" y2="257.2"/>
			<line class="st2" x1="136.4" y1="278.7" x2="136.4" y2="258.4"/>
			<line class="st2" x1="132.1" y1="274.6" x2="132.1" y2="259.5"/>
			<line class="st2" x1="127.8" y1="270.5" x2="127.8" y2="260.7"/>
		</g>
	</g>
	<g>
		<path class="st4" d="M62.4,245c12.1,7.2,26,11.9,40.9,13.4"/>
		<g>
			<line class="st2" x1="77.5" y1="291" x2="77.5" y2="254.8"/>
			<line class="st2" x1="81.8" y1="286.7" x2="81.8" y2="256"/>
			<line class="st2" x1="86.1" y1="282.8" x2="86.1" y2="257.2"/>
			<line class="st2" x1="90.4" y1="278.7" x2="90.4" y2="258.4"/>
			<line class="st2" x1="94.7" y1="274.6" x2="94.7" y2="259.5"/>
			<line class="st2" x1="99" y1="270.5" x2="99" y2="260.7"/>
		</g>
	</g>
</g>
<g>
	<line class="st1" x1="138.4" y1="91.5" x2="171.9" y2="59.7"/>
	<line class="st1" x1="138.4" y1="243.3" x2="171.9" y2="275.2"/>
	<line class="st1" x1="88.4" y1="91.5" x2="54.9" y2="59.7"/>
	<line class="st1" x1="88.4" y1="243.3" x2="54.9" y2="275.2"/>
</g>
<path class="st3" d="M102.7,182.8l-14.7-4.1l-0.1,8.8l22.3,6.3l-0.2-50.9h-7.3L102.7,182.8L102.7,182.8z"/>
<path class="st3" d="M116.4,142.8l24.3,0l-1.1,8.8l-15.7,0.1v13.6l15-1.7l-1.8,24.6l-20.7,5.4v-9.8l15-3l0.2-7.8l-15.2,2.6
	L116.4,142.8L116.4,142.8L116.4,142.8z"/>
</svg>
