<?xml version="1.0" encoding="utf-8"?>
<!-- Generator: Adobe Illustrator 27.2.0, SVG Export Plug-In . SVG Version: 6.00 Build 0)  -->
<svg version="1.1" id="Layer_1" xmlns="http://www.w3.org/2000/svg" xmlns:xlink="http://www.w3.org/1999/xlink" x="0px" y="0px"
	 viewBox="0 0 1024 1024" style="enable-background:new 0 0 1024 1024;" xml:space="preserve">
<style type="text/css">
	.st0{fill:#FAFAFA;}
</style>
<path class="st0" d="M478.5,0.8c-2.2,0.2-9.2,0.9-15.5,1.4c-145.3,13.1-281.4,91.5-367.6,212c-48,67-78.7,143-90.3,223.5
	c-4.1,28.1-4.6,36.4-4.6,74.5s0.5,46.4,4.6,74.5C32.9,778.7,169.6,940.1,355,999.9c33.2,10.7,68.2,18,108,22.4
	c15.5,1.7,82.5,1.7,98,0c68.7-7.6,126.9-24.6,184.3-53.9c8.8-4.5,10.5-5.7,9.3-6.7c-0.8-0.6-38.3-50.9-83.3-111.7l-81.8-110.5
	L487,587.8c-56.4-83.4-102.8-151.6-103.2-151.6c-0.4-0.1-0.8,67.3-1,149.6c-0.3,144.1-0.4,149.9-2.2,153.3c-2.6,4.9-4.6,6.9-8.8,9.1
	c-3.2,1.6-6,1.9-21.1,1.9h-17.3l-4.6-2.9c-3-1.9-5.2-4.4-6.7-7.3l-2.1-4.5l0.2-200.5l0.3-200.6l3.1-3.9c1.6-2.1,5-4.8,7.4-6.1
	c4.1-2,5.7-2.2,23-2.2c20.4,0,23.8,0.8,29.1,6.6c1.5,1.6,57,85.2,123.4,185.9s157.2,238.2,201.8,305.7l81,122.7l4.1-2.7
	c36.3-23.6,74.7-57.2,105.1-92.2c64.7-74.3,106.4-164.9,120.4-261.5c4.1-28.1,4.6-36.4,4.6-74.5s-0.5-46.4-4.6-74.5
	C991.1,245.6,854.4,84.2,669,24.4C636.3,13.8,601.5,6.5,562.5,2.1C552.9,1.1,486.8,0,478.5,0.8L478.5,0.8z M687.9,310.2
	c4.8,2.4,8.7,7,10.1,11.8c0.8,2.6,1,58.2,0.8,183.5l-0.3,179.8l-31.7-48.6L635,588V457.4c0-84.5,0.4-132,1-134.3
	c1.6-5.6,5.1-10,9.9-12.6c4.1-2.1,5.6-2.3,21.3-2.3C682,308.2,684.6,308.4,687.9,310.2L687.9,310.2z"/>
<path d="M784.3,945.2c-3.5,2.2-4.6,3.7-1.5,2c2.2-1.3,5.8-4,5.2-4.1C787.7,943.1,786,944.1,784.3,945.2z M777.4,949.7
	c-1.8,1.4-1.8,1.5,0.4,0.4c1.2-0.6,2.2-1.3,2.2-1.5C780,947.8,779.5,948,777.4,949.7L777.4,949.7z M772.4,952.7
	c-1.8,1.4-1.8,1.5,0.4,0.4c1.2-0.6,2.2-1.3,2.2-1.5C775,950.8,774.5,951,772.4,952.7L772.4,952.7z M767.4,955.7
	c-1.8,1.4-1.8,1.5,0.4,0.4c1.2-0.6,2.2-1.3,2.2-1.5C770,953.8,769.5,954,767.4,955.7L767.4,955.7z M759.8,959.7
	c-3.8,2-3.6,2.8,0.2,0.9c1.7-0.9,3-1.8,3-2C763,957.9,762.9,958,759.8,959.7z"/>
</svg>
