<?xml version="1.0" encoding="utf-8"?>
<!-- Generator: Adobe Illustrator 27.2.0, SVG Export Plug-In . SVG Version: 6.00 Build 0)  -->
<svg version="1.1" id="Layer_1" xmlns="http://www.w3.org/2000/svg" xmlns:xlink="http://www.w3.org/1999/xlink" x="0px" y="0px"
	 viewBox="0 0 94.4 100" style="enable-background:new 0 0 94.4 100;" xml:space="preserve">
<style type="text/css">
	.st0{fill:#FFFFFF;}
	.st1{fill:#689F63;}
</style>
<path class="st0" d="M86.3,21.5L52.2,1.8c-3-1.7-6.9-1.7-10,0L8.1,21.6c-3.1,1.7-5,5.1-5,8.7v39.4c0,3.6,1.9,6.9,5,8.7l9,5.2
	c0.1,0,0.1,0.1,0.2,0.1c4.6,2.2,6.6,2.4,9.1,2.4c1,0,1.9,0,2.8-0.2c-0.6,0.6-0.8,1.2-0.8,1.8c-0.1,1.5,0.7,2.7,2.4,3.7l11.4,6.8
	c1.5,0.8,3.2,1.3,5,1.3c0.1,0,0.3,0,0.3-0.1c1.7,0,3.3-0.5,4.7-1.3l34.1-19.8c3.1-1.8,5-5.1,5-8.7V30.2
	C91.3,26.6,89.4,23.3,86.3,21.5z M60.5,13.2L47.9,6.3c0.5,0.1,1.1,0.2,1.5,0.5L60.5,13.2z"/>
<path class="st1" d="M47.2,96.6c-1.2,0-2.5-0.3-3.6-1l-11.4-6.7c-1.7-1-0.9-1.3-0.3-1.5c2.3-0.8,2.7-1,5.2-2.3
	c0.3-0.1,0.6-0.1,0.8,0.1l8.8,5.2c0.3,0.2,0.8,0.2,1.1,0l34.1-19.7c0.3-0.2,0.5-0.5,0.5-0.9V30.3c0-0.4-0.2-0.7-0.5-0.9L47.7,9.7
	c-0.3-0.2-0.7-0.2-1.1,0l-34,19.6c-0.3,0.2-0.5,0.6-0.5,0.9v39.4c0,0.4,0.2,0.7,0.5,0.9l9.3,5.4c5.1,2.5,8.2-0.5,8.2-3.5V33.6
	c0-0.6,0.4-1,1-1h4.3c0.5,0,1,0.4,1,1v38.9c0,6.8-3.7,10.7-10.1,10.7c-2,0-3.5,0-7.9-2.1l-9-5.2c-2.2-1.3-3.6-3.7-3.6-6.2V30.3
	c0-2.6,1.4-5,3.6-6.2L43.6,4.3c2.2-1.2,5-1.2,7.2,0L84.9,24c2.2,1.3,3.6,3.7,3.6,6.2v39.4c0,2.6-1.4,4.9-3.6,6.2L50.8,95.6
	C49.7,96.2,48.5,96.6,47.2,96.6"/>
<path class="st1" d="M57.8,69.4c-14.9,0-18.1-6.9-18.1-12.6c0-0.5,0.4-1,1-1h4.4c0.5,0,0.9,0.4,1,0.8c0.7,4.5,2.6,6.8,11.7,6.8
	c7.2,0,10.3-1.6,10.3-5.4c0-2.2-0.9-3.8-12-4.9c-9.3-0.9-15.1-3-15.1-10.5c0-6.9,5.8-11,15.5-11c10.9,0,16.3,3.8,17,11.9
	c0,0.3-0.1,0.6-0.3,0.8c-0.2,0.2-0.5,0.3-0.7,0.3H68c-0.5,0-0.9-0.3-1-0.8c-1.1-4.7-3.6-6.2-10.7-6.2c-7.9,0-8.8,2.7-8.8,4.8
	c0,2.5,1.1,3.2,11.7,4.6c10.5,1.4,15.5,3.4,15.5,10.7C74.7,65.2,68.5,69.5,57.8,69.4"/>
</svg>
