<?xml version="1.0" encoding="utf-8"?>
<!-- Generator: Adobe Illustrator 27.2.0, SVG Export Plug-In . SVG Version: 6.00 Build 0)  -->
<svg version="1.1" id="BACKGROUND" xmlns="http://www.w3.org/2000/svg" xmlns:xlink="http://www.w3.org/1999/xlink" x="0px" y="0px"
	 viewBox="0 0 428 307" style="enable-background:new 0 0 428 307;" xml:space="preserve">
<style type="text/css">
	.st0{clip-path:url(#SVGID_00000123408395318856586030000012710363003400973982_);}
	.st1{fill:none;stroke:#FFD090;stroke-width:3;stroke-linecap:round;stroke-miterlimit:10;stroke-dasharray:0,7.9951;}
	.st2{clip-path:url(#SVGID_00000114790423865655037560000007781253679308547758_);}
	.st3{fill:none;stroke:#FFD090;stroke-width:0.5;stroke-linecap:round;stroke-linejoin:round;stroke-miterlimit:10;}
	
		.st4{clip-path:url(#SVGID_00000131325434026935653750000003509996309810241456_);fill:none;stroke:#FFD090;stroke-width:2;stroke-linecap:round;stroke-linejoin:round;stroke-miterlimit:10;}
	.st5{fill:none;}
	.st6{fill:none;stroke:#FFD090;stroke-width:2;stroke-linecap:round;stroke-linejoin:round;stroke-miterlimit:10;}
	.st7{fill:#FFD090;}
	.st8{fill:none;stroke:#FFD090;stroke-width:3;stroke-linecap:round;stroke-miterlimit:10;stroke-dasharray:0,8;}
	.st9{clip-path:url(#SVGID_00000157303031216169872190000001923194086797641110_);}
	.st10{clip-path:url(#SVGID_00000081621952132871083420000015738835901830767285_);}
	.st11{clip-path:url(#SVGID_00000053524219693539728070000001247246122567916955_);}
	.st12{clip-path:url(#SVGID_00000047746375208600923580000015744612647942704290_);}
	.st13{clip-path:url(#SVGID_00000093145783844705462310000002766039821992566411_);}
	.st14{clip-path:url(#SVGID_00000030460922873527758170000016769526414243763606_);}
</style>
<g>
	<defs>
		<rect id="SVGID_1_" x="9.7" y="24.3" width="408.7" height="272.5"/>
	</defs>
	<clipPath id="SVGID_00000097488773689655150110000005709975952287010239_">
		<use xlink:href="#SVGID_1_"  style="overflow:visible;"/>
	</clipPath>
	<g style="clip-path:url(#SVGID_00000097488773689655150110000005709975952287010239_);">
		<circle class="st1" cx="214" cy="160.5" r="92.9"/>
	</g>
</g>
<g>
	<defs>
		<rect id="SVGID_00000141455105196442215510000010017174578108271489_" x="9.7" y="24.3" width="408.7" height="272.5"/>
	</defs>
	<clipPath id="SVGID_00000046338880016827026620000014195273003529823369_">
		<use xlink:href="#SVGID_00000141455105196442215510000010017174578108271489_"  style="overflow:visible;"/>
	</clipPath>
	<g style="clip-path:url(#SVGID_00000046338880016827026620000014195273003529823369_);">
		<line class="st3" x1="214" y1="74.1" x2="214" y2="145.9"/>
		<line class="st3" x1="205" y1="74.6" x2="212.5" y2="146"/>
		<line class="st3" x1="196" y1="76" x2="210.9" y2="146.2"/>
		<line class="st3" x1="187.3" y1="78.4" x2="209.5" y2="146.6"/>
		<line class="st3" x1="178.9" y1="81.6" x2="208.1" y2="147.1"/>
		<line class="st3" x1="170.8" y1="85.7" x2="206.7" y2="147.8"/>
		<line class="st3" x1="163.2" y1="90.6" x2="205.4" y2="148.7"/>
		<line class="st3" x1="156.2" y1="96.4" x2="204.2" y2="149.6"/>
		<line class="st3" x1="149.8" y1="102.7" x2="203.1" y2="150.7"/>
		<line class="st3" x1="144.1" y1="109.8" x2="202.1" y2="151.9"/>
		<line class="st3" x1="139.2" y1="117.3" x2="201.3" y2="153.2"/>
		<line class="st3" x1="135" y1="125.4" x2="200.6" y2="154.6"/>
		<line class="st3" x1="131.8" y1="133.8" x2="200.1" y2="156"/>
		<line class="st3" x1="129.5" y1="142.6" x2="199.7" y2="157.5"/>
		<line class="st3" x1="128.1" y1="151.5" x2="199.5" y2="159"/>
		<line class="st3" x1="127.6" y1="160.5" x2="199.3" y2="160.5"/>
		<line class="st3" x1="128.1" y1="169.6" x2="199.5" y2="162.1"/>
		<line class="st3" x1="129.5" y1="178.5" x2="199.7" y2="163.6"/>
		<line class="st3" x1="131.8" y1="187.2" x2="200.1" y2="165.1"/>
		<line class="st3" x1="135" y1="195.7" x2="200.6" y2="166.5"/>
		<line class="st3" x1="139.2" y1="203.8" x2="201.3" y2="167.8"/>
		<line class="st3" x1="144.1" y1="211.3" x2="202.1" y2="169.2"/>
		<line class="st3" x1="149.8" y1="218.4" x2="203.1" y2="170.4"/>
		<line class="st3" x1="156.2" y1="224.7" x2="204.2" y2="171.4"/>
		<line class="st3" x1="163.2" y1="230.5" x2="205.4" y2="172.4"/>
		<line class="st3" x1="170.8" y1="235.4" x2="206.7" y2="173.2"/>
		<line class="st3" x1="178.9" y1="239.5" x2="208.1" y2="173.9"/>
		<line class="st3" x1="187.3" y1="242.7" x2="209.5" y2="174.5"/>
		<line class="st3" x1="196" y1="245.1" x2="210.9" y2="174.9"/>
		<line class="st3" x1="205" y1="246.5" x2="212.5" y2="175.1"/>
		<line class="st3" x1="214" y1="247" x2="214" y2="175.2"/>
		<line class="st3" x1="223" y1="246.5" x2="215.5" y2="175.1"/>
		<line class="st3" x1="232" y1="245.1" x2="217.1" y2="174.9"/>
		<line class="st3" x1="240.7" y1="242.7" x2="218.5" y2="174.5"/>
		<line class="st3" x1="249.1" y1="239.5" x2="219.9" y2="173.9"/>
		<line class="st3" x1="257.2" y1="235.4" x2="221.3" y2="173.2"/>
		<line class="st3" x1="264.8" y1="230.5" x2="222.6" y2="172.4"/>
		<line class="st3" x1="271.8" y1="224.7" x2="223.8" y2="171.4"/>
		<line class="st3" x1="278.2" y1="218.4" x2="224.9" y2="170.4"/>
		<line class="st3" x1="283.9" y1="211.3" x2="225.9" y2="169.2"/>
		<line class="st3" x1="288.8" y1="203.8" x2="226.7" y2="167.8"/>
		<line class="st3" x1="293" y1="195.7" x2="227.4" y2="166.5"/>
		<line class="st3" x1="296.2" y1="187.2" x2="227.9" y2="165.1"/>
		<line class="st3" x1="298.5" y1="178.5" x2="228.3" y2="163.6"/>
		<line class="st3" x1="299.9" y1="169.6" x2="228.5" y2="162.1"/>
		<line class="st3" x1="300.4" y1="160.5" x2="228.7" y2="160.5"/>
		<line class="st3" x1="299.9" y1="151.5" x2="228.5" y2="159"/>
		<line class="st3" x1="298.5" y1="142.6" x2="228.3" y2="157.5"/>
		<line class="st3" x1="296.2" y1="133.8" x2="227.9" y2="156"/>
		<line class="st3" x1="293" y1="125.4" x2="227.4" y2="154.6"/>
		<line class="st3" x1="288.8" y1="117.3" x2="226.7" y2="153.2"/>
		<line class="st3" x1="283.9" y1="109.8" x2="225.9" y2="151.9"/>
		<line class="st3" x1="278.2" y1="102.7" x2="224.9" y2="150.7"/>
		<line class="st3" x1="271.8" y1="96.4" x2="223.8" y2="149.6"/>
		<line class="st3" x1="264.8" y1="90.6" x2="222.6" y2="148.7"/>
		<line class="st3" x1="257.2" y1="85.7" x2="221.3" y2="147.8"/>
		<line class="st3" x1="249.1" y1="81.6" x2="219.9" y2="147.1"/>
		<line class="st3" x1="240.7" y1="78.4" x2="218.5" y2="146.6"/>
		<line class="st3" x1="232" y1="76" x2="217.1" y2="146.2"/>
		<line class="st3" x1="223" y1="74.6" x2="215.5" y2="146"/>
	</g>
</g>
<g>
	<defs>
		<rect id="SVGID_00000046312595279734777410000006166873758539189895_" x="9.7" y="24.3" width="408.7" height="272.5"/>
	</defs>
	<clipPath id="SVGID_00000141447286554936464670000004743732744373482913_">
		<use xlink:href="#SVGID_00000046312595279734777410000006166873758539189895_"  style="overflow:visible;"/>
	</clipPath>
	
		<circle style="clip-path:url(#SVGID_00000141447286554936464670000004743732744373482913_);fill:none;stroke:#FFD090;stroke-width:2;stroke-linecap:round;stroke-linejoin:round;stroke-miterlimit:10;" cx="214" cy="160.5" r="86.4"/>
</g>
<rect x="9.7" y="24.3" class="st5" width="408.7" height="272.5"/>
<g>
	<rect x="40.9" y="42.2" class="st6" width="25.3" height="25.3"/>
	<rect x="47.6" y="48.8" class="st7" width="12" height="12"/>
	<rect x="20.2" y="21.5" class="st7" width="12.1" height="12.1"/>
	<circle class="st6" cx="53.6" cy="54.8" r="17.9"/>
	<path class="st3" d="M32.1,76.3c11.8,11.8,31.1,11.8,42.9,0s11.8-31.1,0-42.9"/>
	<path class="st8" d="M28.7,79.7c13.7,13.7,36.1,13.7,49.8,0s13.7-36.1,0-49.8"/>
	<circle class="st6" cx="53.6" cy="54.8" r="26.4"/>
	<g>
		<g>
			<defs>
				<circle id="SVGID_00000077320703834336652900000007527607019988401033_" cx="53.6" cy="54.8" r="26.4"/>
			</defs>
			<clipPath id="SVGID_00000144310685794452032340000015872591101406062977_">
				<use xlink:href="#SVGID_00000077320703834336652900000007527607019988401033_"  style="overflow:visible;"/>
			</clipPath>
			<g style="clip-path:url(#SVGID_00000144310685794452032340000015872591101406062977_);">
				<line class="st3" x1="66.3" y1="67.6" x2="89.9" y2="91.2"/>
				<line class="st3" x1="68.7" y1="64.6" x2="96.7" y2="82.8"/>
				<line class="st3" x1="70.4" y1="61.3" x2="101.6" y2="73.2"/>
				<line class="st3" x1="71.3" y1="57.6" x2="104.4" y2="62.9"/>
				<line class="st3" x1="71.6" y1="53.9" x2="104.9" y2="52.1"/>
				<line class="st3" x1="71" y1="50.2" x2="103.2" y2="41.5"/>
				<line class="st3" x1="69.6" y1="46.6" x2="99.4" y2="31.5"/>
				<line class="st3" x1="67.5" y1="43.5" x2="93.5" y2="22.4"/>
				<line class="st3" x1="64.9" y1="40.9" x2="85.9" y2="14.9"/>
				<line class="st3" x1="61.7" y1="38.8" x2="76.9" y2="9"/>
				<line class="st3" x1="58.2" y1="37.4" x2="66.9" y2="5.2"/>
				<line class="st3" x1="54.5" y1="36.9" x2="56.2" y2="3.5"/>
				<line class="st3" x1="50.7" y1="37.1" x2="45.5" y2="4"/>
				<line class="st3" x1="47.1" y1="38" x2="35.2" y2="6.8"/>
				<line class="st3" x1="43.8" y1="39.7" x2="25.6" y2="11.7"/>
				<line class="st3" x1="40.9" y1="42.1" x2="17.2" y2="18.5"/>
				<line class="st3" x1="38.5" y1="45" x2="10.5" y2="26.8"/>
				<line class="st3" x1="36.8" y1="48.4" x2="5.6" y2="36.4"/>
				<line class="st3" x1="35.8" y1="52" x2="2.8" y2="46.8"/>
				<line class="st3" x1="35.6" y1="55.8" x2="2.2" y2="57.5"/>
				<line class="st3" x1="36.2" y1="59.5" x2="3.9" y2="68.1"/>
				<line class="st3" x1="37.6" y1="63" x2="7.7" y2="78.2"/>
				<line class="st3" x1="39.6" y1="66.1" x2="13.6" y2="87.2"/>
				<line class="st3" x1="42.2" y1="68.8" x2="21.2" y2="94.8"/>
				<line class="st3" x1="45.4" y1="70.8" x2="30.3" y2="100.6"/>
				<line class="st3" x1="48.9" y1="72.2" x2="40.3" y2="104.5"/>
				<line class="st3" x1="52.6" y1="72.8" x2="50.9" y2="106.2"/>
				<line class="st3" x1="56.4" y1="72.6" x2="61.6" y2="105.6"/>
				<line class="st3" x1="60" y1="71.6" x2="72" y2="102.8"/>
				<line class="st3" x1="63.4" y1="69.9" x2="81.6" y2="98"/>
			</g>
		</g>
	</g>
	<polyline class="st6" points="41.2,67.2 25.6,82.8 25.6,69.6 15.8,79.4 15.8,16.7 15.8,16.7 78.5,16.7 68.7,26.5 81.9,26.5 
		66.2,42.2 	"/>
	<polyline class="st3" points="94.5,23.2 21.9,23.2 21.9,95.7 38.5,95.7 25.6,82.8 	"/>
	<polyline class="st3" points="94.5,23.2 94.8,39.5 81.9,26.5 	"/>
</g>
<g>
	<rect x="361.4" y="42.2" class="st6" width="25.3" height="25.3"/>
	<rect x="368" y="48.8" class="st7" width="12" height="12"/>
	<rect x="395.2" y="21.5" class="st7" width="12.1" height="12.1"/>
	<circle class="st6" cx="374" cy="54.8" r="17.9"/>
	<path class="st3" d="M395.4,76.3c-11.8,11.8-31.1,11.8-42.9,0s-11.8-31.1,0-42.9"/>
	<path class="st8" d="M398.9,79.7c-13.7,13.7-36.1,13.7-49.8,0s-13.7-36.1,0-49.8"/>
	<circle class="st6" cx="374" cy="54.8" r="26.4"/>
	<g>
		<g>
			<defs>
				<circle id="SVGID_00000122713183641864419350000008967644282607044739_" cx="374" cy="54.8" r="26.4"/>
			</defs>
			<clipPath id="SVGID_00000059310830882126033440000009024898196702311050_">
				<use xlink:href="#SVGID_00000122713183641864419350000008967644282607044739_"  style="overflow:visible;"/>
			</clipPath>
			<g style="clip-path:url(#SVGID_00000059310830882126033440000009024898196702311050_);">
				<line class="st3" x1="361.3" y1="67.6" x2="337.6" y2="91.2"/>
				<line class="st3" x1="358.9" y1="64.6" x2="330.9" y2="82.8"/>
				<line class="st3" x1="357.2" y1="61.3" x2="326" y2="73.2"/>
				<line class="st3" x1="356.2" y1="57.6" x2="323.2" y2="62.9"/>
				<line class="st3" x1="356" y1="53.9" x2="322.6" y2="52.1"/>
				<line class="st3" x1="356.6" y1="50.2" x2="324.3" y2="41.5"/>
				<line class="st3" x1="358" y1="46.6" x2="328.2" y2="31.5"/>
				<line class="st3" x1="360" y1="43.5" x2="334" y2="22.4"/>
				<line class="st3" x1="362.6" y1="40.9" x2="341.6" y2="14.9"/>
				<line class="st3" x1="365.8" y1="38.8" x2="350.7" y2="9"/>
				<line class="st3" x1="369.3" y1="37.4" x2="360.7" y2="5.2"/>
				<line class="st3" x1="373.1" y1="36.9" x2="371.3" y2="3.5"/>
				<line class="st3" x1="376.8" y1="37.1" x2="382" y2="4"/>
				<line class="st3" x1="380.4" y1="38" x2="392.4" y2="6.8"/>
				<line class="st3" x1="383.8" y1="39.7" x2="402" y2="11.7"/>
				<line class="st3" x1="386.7" y1="42.1" x2="410.3" y2="18.5"/>
				<line class="st3" x1="389.1" y1="45" x2="417.1" y2="26.8"/>
				<line class="st3" x1="390.8" y1="48.4" x2="422" y2="36.4"/>
				<line class="st3" x1="391.7" y1="52" x2="424.8" y2="46.8"/>
				<line class="st3" x1="392" y1="55.8" x2="425.3" y2="57.5"/>
				<line class="st3" x1="391.4" y1="59.5" x2="423.7" y2="68.1"/>
				<line class="st3" x1="390" y1="63" x2="419.8" y2="78.2"/>
				<line class="st3" x1="388" y1="66.1" x2="413.9" y2="87.2"/>
				<line class="st3" x1="385.3" y1="68.8" x2="406.3" y2="94.8"/>
				<line class="st3" x1="382.2" y1="70.8" x2="397.3" y2="100.6"/>
				<line class="st3" x1="378.7" y1="72.2" x2="387.3" y2="104.5"/>
				<line class="st3" x1="374.9" y1="72.8" x2="376.6" y2="106.2"/>
				<line class="st3" x1="371.1" y1="72.6" x2="365.9" y2="105.6"/>
				<line class="st3" x1="367.5" y1="71.6" x2="355.6" y2="102.8"/>
				<line class="st3" x1="364.2" y1="69.9" x2="346" y2="98"/>
			</g>
		</g>
	</g>
	<polyline class="st6" points="386.3,67.2 402,82.8 402,69.6 411.8,79.4 411.8,16.7 411.8,16.7 349.1,16.7 358.9,26.5 345.7,26.5 
		361.3,42.2 	"/>
	<polyline class="st3" points="333.1,23.2 405.6,23.2 405.6,95.7 389,95.7 402,82.8 	"/>
	<polyline class="st3" points="333.1,23.2 332.8,39.5 345.7,26.5 	"/>
</g>
<g>
	<rect x="361.6" y="239.7" class="st6" width="25.3" height="25.3"/>
	<rect x="368.2" y="246.4" class="st7" width="12" height="12"/>
	<rect x="395.5" y="273.6" class="st7" width="12.1" height="12.1"/>
	<circle class="st6" cx="374.2" cy="252.4" r="17.9"/>
	<path class="st3" d="M395.7,230.9c-11.8-11.8-31.1-11.8-42.9,0c-11.8,11.8-11.8,31.1,0,42.9"/>
	<path class="st8" d="M399.1,227.5c-13.7-13.7-36.1-13.7-49.8,0s-13.7,36.1,0,49.8"/>
	<circle class="st6" cx="374.2" cy="252.4" r="26.4"/>
	<g>
		<g>
			<defs>
				<circle id="SVGID_00000173145065507687160170000009486012010985905306_" cx="374.2" cy="252.4" r="26.4"/>
			</defs>
			<clipPath id="SVGID_00000099653612932155552370000016782369057669304196_">
				<use xlink:href="#SVGID_00000173145065507687160170000009486012010985905306_"  style="overflow:visible;"/>
			</clipPath>
			<g style="clip-path:url(#SVGID_00000099653612932155552370000016782369057669304196_);">
				<line class="st3" x1="361.5" y1="239.6" x2="337.9" y2="216"/>
				<line class="st3" x1="359.1" y1="242.6" x2="331.1" y2="224.4"/>
				<line class="st3" x1="357.4" y1="245.9" x2="326.2" y2="233.9"/>
				<line class="st3" x1="356.4" y1="249.5" x2="323.4" y2="244.3"/>
				<line class="st3" x1="356.2" y1="253.3" x2="322.9" y2="255"/>
				<line class="st3" x1="356.8" y1="257" x2="324.6" y2="265.7"/>
				<line class="st3" x1="358.2" y1="260.5" x2="328.4" y2="275.7"/>
				<line class="st3" x1="360.3" y1="263.7" x2="334.3" y2="284.7"/>
				<line class="st3" x1="362.9" y1="266.3" x2="341.8" y2="292.3"/>
				<line class="st3" x1="366" y1="268.4" x2="350.9" y2="298.2"/>
				<line class="st3" x1="369.6" y1="269.7" x2="360.9" y2="302"/>
				<line class="st3" x1="373.3" y1="270.3" x2="371.5" y2="303.7"/>
				<line class="st3" x1="377" y1="270.1" x2="382.3" y2="303.1"/>
				<line class="st3" x1="380.6" y1="269.1" x2="392.6" y2="300.4"/>
				<line class="st3" x1="384" y1="267.5" x2="402.2" y2="295.5"/>
				<line class="st3" x1="386.9" y1="265.1" x2="410.5" y2="288.7"/>
				<line class="st3" x1="389.3" y1="262.2" x2="417.3" y2="280.4"/>
				<line class="st3" x1="391" y1="258.8" x2="422.2" y2="270.8"/>
				<line class="st3" x1="392" y1="255.1" x2="425" y2="260.4"/>
				<line class="st3" x1="392.2" y1="251.4" x2="425.5" y2="249.6"/>
				<line class="st3" x1="391.6" y1="247.7" x2="423.9" y2="239.1"/>
				<line class="st3" x1="390.2" y1="244.2" x2="420" y2="229"/>
				<line class="st3" x1="388.2" y1="241" x2="414.1" y2="220"/>
				<line class="st3" x1="385.5" y1="238.4" x2="406.6" y2="212.4"/>
				<line class="st3" x1="382.4" y1="236.3" x2="397.5" y2="206.5"/>
				<line class="st3" x1="378.9" y1="235" x2="387.5" y2="202.7"/>
				<line class="st3" x1="375.1" y1="234.4" x2="376.9" y2="201"/>
				<line class="st3" x1="371.4" y1="234.6" x2="366.1" y2="201.6"/>
				<line class="st3" x1="367.8" y1="235.6" x2="355.8" y2="204.4"/>
				<line class="st3" x1="364.4" y1="237.3" x2="346.2" y2="209.2"/>
			</g>
		</g>
	</g>
	<polyline class="st6" points="386.6,240 402.2,224.4 402.2,237.5 412,227.7 412,290.5 412,290.5 349.3,290.5 359.1,280.6 
		345.9,280.6 361.6,265 	"/>
	<polyline class="st3" points="333.3,284 405.9,284 405.9,211.4 389.2,211.4 402.2,224.4 	"/>
	<polyline class="st3" points="333.3,284 333,267.7 345.9,280.6 	"/>
</g>
<g>
	<rect x="41.2" y="239.7" class="st6" width="25.3" height="25.3"/>
	<rect x="47.8" y="246.4" class="st7" width="12" height="12"/>
	<rect x="20.4" y="273.6" class="st7" width="12.1" height="12.1"/>
	
		<ellipse transform="matrix(3.327791e-02 -0.9994 0.9994 3.327791e-02 -200.2139 297.731)" class="st6" cx="53.8" cy="252.4" rx="17.9" ry="17.9"/>
	<path class="st3" d="M32.3,230.9c11.8-11.8,31.1-11.8,42.9,0c11.8,11.8,11.8,31.1,0,42.9"/>
	<path class="st8" d="M28.9,227.5c13.7-13.7,36.1-13.7,49.8,0s13.7,36.1,0,49.8"/>
	<circle class="st6" cx="53.8" cy="252.4" r="26.4"/>
	<g>
		<g>
			<defs>
				<circle id="SVGID_00000178897394142706192360000017056393035695962752_" cx="53.8" cy="252.4" r="26.4"/>
			</defs>
			<clipPath id="SVGID_00000173866143078251301370000008915508525099224200_">
				<use xlink:href="#SVGID_00000178897394142706192360000017056393035695962752_"  style="overflow:visible;"/>
			</clipPath>
			<g style="clip-path:url(#SVGID_00000173866143078251301370000008915508525099224200_);">
				<line class="st3" x1="66.5" y1="239.6" x2="90.1" y2="216"/>
				<line class="st3" x1="68.9" y1="242.6" x2="96.9" y2="224.4"/>
				<line class="st3" x1="70.6" y1="245.9" x2="101.8" y2="233.9"/>
				<line class="st3" x1="71.6" y1="249.5" x2="104.6" y2="244.3"/>
				<line class="st3" x1="71.8" y1="253.3" x2="105.1" y2="255"/>
				<line class="st3" x1="71.2" y1="257" x2="103.4" y2="265.7"/>
				<line class="st3" x1="69.8" y1="260.5" x2="99.6" y2="275.7"/>
				<line class="st3" x1="67.7" y1="263.7" x2="93.7" y2="284.7"/>
				<line class="st3" x1="65.1" y1="266.3" x2="86.2" y2="292.3"/>
				<line class="st3" x1="62" y1="268.4" x2="77.1" y2="298.2"/>
				<line class="st3" x1="58.4" y1="269.7" x2="67.1" y2="302"/>
				<line class="st3" x1="54.7" y1="270.3" x2="56.5" y2="303.7"/>
				<line class="st3" x1="51" y1="270.1" x2="45.7" y2="303.1"/>
				<line class="st3" x1="47.4" y1="269.1" x2="35.4" y2="300.4"/>
				<line class="st3" x1="44" y1="267.5" x2="25.8" y2="295.5"/>
				<line class="st3" x1="41.1" y1="265.1" x2="17.5" y2="288.7"/>
				<line class="st3" x1="38.7" y1="262.2" x2="10.7" y2="280.4"/>
				<line class="st3" x1="37" y1="258.8" x2="5.8" y2="270.8"/>
				<line class="st3" x1="36" y1="255.1" x2="3" y2="260.4"/>
				<line class="st3" x1="35.8" y1="251.4" x2="2.5" y2="249.6"/>
				<line class="st3" x1="36.4" y1="247.7" x2="4.1" y2="239.1"/>
				<line class="st3" x1="37.8" y1="244.2" x2="8" y2="229"/>
				<line class="st3" x1="39.8" y1="241" x2="13.9" y2="220"/>
				<line class="st3" x1="42.5" y1="238.4" x2="21.4" y2="212.4"/>
				<line class="st3" x1="45.6" y1="236.3" x2="30.5" y2="206.5"/>
				<line class="st3" x1="49.1" y1="235" x2="40.5" y2="202.7"/>
				<line class="st3" x1="52.9" y1="234.4" x2="51.1" y2="201"/>
				<line class="st3" x1="56.6" y1="234.6" x2="61.9" y2="201.6"/>
				<line class="st3" x1="60.2" y1="235.6" x2="72.2" y2="204.4"/>
				<line class="st3" x1="63.6" y1="237.3" x2="81.8" y2="209.2"/>
			</g>
		</g>
	</g>
	<polyline class="st6" points="41.4,240 25.8,224.4 25.8,237.5 16,227.7 16,290.5 16,290.5 78.7,290.5 68.9,280.6 82.1,280.6 
		66.4,265 	"/>
	<polyline class="st3" points="94.7,284 22.1,284 22.1,211.4 38.8,211.4 25.8,224.4 	"/>
	<polyline class="st3" points="94.7,284 95,267.7 82.1,280.6 	"/>
</g>
<g>
	<defs>
		<rect id="SVGID_00000165231300746177846350000015531704880358123927_" x="9.7" y="24.3" width="408.7" height="272.5"/>
	</defs>
	<clipPath id="SVGID_00000067931801136182719090000015420476719444391838_">
		<use xlink:href="#SVGID_00000165231300746177846350000015531704880358123927_"  style="overflow:visible;"/>
	</clipPath>
	<g style="clip-path:url(#SVGID_00000067931801136182719090000015420476719444391838_);">
		<path class="st3" d="M117,166.5c2.9,48.6,41.5,87.5,89.8,91.1V284l-4.9-4.9h-65.9l10.7,10.7"/>
		<path class="st6" d="M127.6,164h-18c1.7,54.9,45.8,99,100.6,101V284l-5.8,5.8h-70.7l-38.1-38.1"/>
		<line class="st8" x1="200.1" y1="284" x2="148" y2="284"/>
	</g>
</g>
<g>
	<defs>
		<rect id="SVGID_00000044861522194183013560000015425284211107552395_" x="9.7" y="24.3" width="408.7" height="272.5"/>
	</defs>
	<clipPath id="SVGID_00000026131982833134643720000013052943305492413596_">
		<use xlink:href="#SVGID_00000044861522194183013560000015425284211107552395_"  style="overflow:visible;"/>
	</clipPath>
	<g style="clip-path:url(#SVGID_00000026131982833134643720000013052943305492413596_);">
		<path class="st3" d="M311,166.5c-2.9,48.6-41.4,87.5-89.8,91.1V284l4.9-4.9h65.9l-10.7,10.7"/>
		<path class="st6" d="M300.4,164h18c-1.7,54.9-45.8,99-100.6,101V284l5.8,5.8h70.7l38.1-38.1"/>
		<line class="st8" x1="227.9" y1="284" x2="280" y2="284"/>
	</g>
</g>
<rect x="9.7" y="24.3" class="st5" width="408.7" height="272.5"/>
<polyline class="st6" points="337.6,17.1 308,17.1 291.7,33.4 135.9,33.4 119.5,17.1 89.9,17.1 "/>
</svg>
