<?xml version="1.0" encoding="utf-8"?>
<!-- Generator: Adobe Illustrator 27.2.0, SVG Export Plug-In . SVG Version: 6.00 Build 0)  -->
<svg version="1.1" id="Layer_1" xmlns="http://www.w3.org/2000/svg" xmlns:xlink="http://www.w3.org/1999/xlink" x="0px" y="0px"
	 viewBox="0 0 98.1 118" style="enable-background:new 0 0 98.1 118;" xml:space="preserve">
<style type="text/css">
	.st0{fill:#FF3E00;}
	.st1{fill:#FFFFFF;}
</style>
<path class="st0" d="M90,17.3C79.6,2.3,58.8-2,43.8,7.4L17.5,24.3C10.3,28.8,5.3,36.2,3.9,44.5C2.7,51.5,3.6,58.7,7,65
	c-2.3,3.5-3.8,7.3-4.5,11.3C1,84.8,3,93.7,8,100.7c10.5,15,31.2,19.5,46.2,10l26.3-16.9c7.2-4.5,12.2-11.9,13.6-20.2
	c1.2-7,0.2-14.1-3.2-20.4c2.3-3.5,3.8-7.3,4.5-11.3C97.1,33.2,95.1,24.4,90,17.3"/>
<path class="st1" d="M41.3,102.1c-8.5,2.2-17.4-1.2-22.4-8.4c-3-4.2-4.2-9.5-3.4-14.7c0.2-0.9,0.4-1.6,0.5-2.5l0.4-1.5l1.3,1
	c3.2,2.3,6.6,4,10.3,5.2l1,0.3l-0.1,1c-0.1,1.3,0.3,2.8,1.1,3.9c1.5,2.2,4.2,3.3,6.9,2.6c0.5-0.2,1.2-0.4,1.6-0.7l26.2-16.7
	c1.3-0.9,2.2-2.1,2.5-3.6c0.3-1.5-0.1-3.2-1-4.5c-1.5-2.2-4.2-3.2-6.9-2.5c-0.5,0.2-1.2,0.4-1.6,0.7l-10.1,6.4
	c-1.6,1.1-3.5,1.8-5.3,2.3C33.9,72.6,25,69.2,20,62c-2.9-4.2-4.2-9.5-3.3-14.7c0.9-5,3.9-9.5,8.3-12.2l26.3-16.7
	c1.6-1.1,3.5-1.8,5.3-2.4c8.5-2.2,17.4,1.2,22.4,8.4c3,4.2,4.2,9.5,3.4,14.7c-0.2,0.9-0.4,1.6-0.7,2.5l-0.4,1.5l-1.3-1
	c-3.2-2.3-6.6-4-10.3-5.2l-1-0.3l0.1-1c0.1-1.3-0.3-2.8-1.1-3.9c-1.5-2.2-4.2-3.2-6.9-2.5c-0.5,0.2-1.2,0.4-1.6,0.7L33.1,46.6
	c-1.3,0.9-2.2,2.1-2.5,3.6c-0.3,1.5,0.1,3.2,1,4.5c1.5,2.2,4.2,3.2,6.9,2.5c0.5-0.2,1.2-0.4,1.6-0.7l10.1-6.4
	c1.6-1.1,3.5-1.8,5.3-2.4c8.5-2.2,17.4,1.2,22.4,8.4c3,4.2,4.2,9.5,3.4,14.7c-0.9,5-3.9,9.5-8.3,12.2L46.6,99.7
	C45,100.7,43.1,101.4,41.3,102.1"/>
</svg>
