<?xml version="1.0" encoding="utf-8"?>
<!-- Generator: Adobe Illustrator 27.2.0, SVG Export Plug-In . SVG Version: 6.00 Build 0)  -->
<svg version="1.1" id="Layer_1" xmlns="http://www.w3.org/2000/svg" xmlns:xlink="http://www.w3.org/1999/xlink" x="0px" y="0px"
	 viewBox="0 0 98.1 118" style="enable-background:new 0 0 98.1 118;" xml:space="preserve">
<style type="text/css">
	.st0{fill:#FFFFFF;}
	.st1{fill:#FF3E00;}
</style>
<path class="st0" d="M37.8,116.8c-12,0-23.9-5.7-31.3-16.2c-5.5-7.7-7.7-17.5-6-26.8c0.6-3.4,1.7-6.6,3.3-9.7
	c-2.5-6.1-3.2-12.9-2.1-19.5c1.6-9.3,7.1-17.5,15.2-22.5L41.1,6.7C57.5-3.8,80.1,1,91.5,17.4c5.6,7.7,7.8,17.5,6,26.9
	c-0.6,3.4-1.7,6.6-3.3,9.7c2.5,6.1,3.2,12.9,2.1,19.5c-1.6,9.3-7.1,17.5-15.2,22.5l-24.2,15.4C51.1,115.1,44.4,116.8,37.8,116.8z
	 M60.4,12.8c-4.5,0-9,1.2-13,3.7L23.2,32c-5.3,3.3-8.9,8.6-9.9,14.7c-0.9,5.2-0.1,10.5,2.3,15c1,1.9,0.9,4.2-0.3,6
	c-1.7,2.5-2.8,5.2-3.2,8.1c-1.1,6.3,0.3,12.9,4,18c7.9,11.3,23.4,14.7,34.6,7.6l24.2-15.4c5.3-3.3,8.9-8.6,9.9-14.7
	c0.9-5.2,0.1-10.5-2.3-15c-1-1.9-0.9-4.2,0.3-6c1.7-2.5,2.8-5.2,3.2-8.1c0,0,0-0.1,0-0.1c1.2-6.3-0.3-12.8-4-18c0,0,0-0.1-0.1-0.1
	C76.9,16.8,68.6,12.8,60.4,12.8z"/>
<path class="st1" d="M86.7,20.7C77.1,6.9,58,2.9,44.2,11.6L20,27.1C13.4,31.2,8.8,38,7.5,45.7c-1.1,6.4-0.2,13,2.9,18.8
	c-2.1,3.2-3.5,6.7-4.1,10.4c-1.4,7.8,0.4,16,5,22.4c9.7,13.8,28.7,17.9,42.5,9.2L78,91c6.6-4.1,11.2-10.9,12.5-18.6
	c1.1-6.4,0.2-13-2.9-18.8c2.1-3.2,3.5-6.7,4.1-10.4C93.2,35.3,91.4,27.2,86.7,20.7"/>
<path class="st0" d="M41.9,98.6c-7.8,2-16-1.1-20.6-7.7c-2.8-3.9-3.9-8.7-3.1-13.5c0.2-0.8,0.4-1.5,0.5-2.3l0.4-1.4l1.2,0.9
	c2.9,2.1,6.1,3.7,9.5,4.8l0.9,0.3l-0.1,0.9c-0.1,1.2,0.3,2.6,1,3.6c1.4,2,3.9,3,6.3,2.4c0.5-0.2,1.1-0.4,1.5-0.6l24.1-15.4
	c1.2-0.8,2-1.9,2.3-3.3c0.3-1.4-0.1-2.9-0.9-4.1c-1.4-2-3.9-2.9-6.3-2.3c-0.5,0.2-1.1,0.4-1.5,0.6l-9.3,5.9c-1.5,1-3.2,1.7-4.9,2.1
	c-7.8,2-16-1.1-20.6-7.7c-2.7-3.9-3.9-8.7-3-13.5c0.8-4.6,3.6-8.7,7.6-11.2l24.2-15.4c1.5-1,3.2-1.7,4.9-2.2c7.8-2,16,1.1,20.6,7.7
	c2.8,3.9,3.9,8.7,3.1,13.5c-0.2,0.8-0.4,1.5-0.6,2.3l-0.4,1.4l-1.2-0.9c-2.9-2.1-6.1-3.7-9.5-4.8l-0.9-0.3l0.1-0.9
	c0.1-1.2-0.3-2.6-1-3.6c-1.4-2-3.9-2.9-6.3-2.3c-0.5,0.2-1.1,0.4-1.5,0.6L34.4,47.6c-1.2,0.8-2,1.9-2.3,3.3
	c-0.3,1.4,0.1,2.9,0.9,4.1c1.4,2,3.9,2.9,6.3,2.3c0.5-0.2,1.1-0.4,1.5-0.6l9.3-5.9c1.5-1,3.2-1.7,4.9-2.2c7.8-2,16,1.1,20.6,7.7
	c2.8,3.9,3.9,8.7,3.1,13.5c-0.8,4.6-3.6,8.7-7.6,11.2L46.8,96.4C45.3,97.3,43.6,98,41.9,98.6"/>
</svg>
