<?xml version="1.0" encoding="utf-8"?>
<!-- Generator: Adobe Illustrator 27.2.0, SVG Export Plug-In . SVG Version: 6.00 Build 0)  -->
<svg version="1.1" id="Layer_1" xmlns="http://www.w3.org/2000/svg" xmlns:xlink="http://www.w3.org/1999/xlink" x="0px" y="0px"
	 viewBox="0 0 116.3 100.3" style="enable-background:new 0 0 116.3 100.3;" xml:space="preserve">
<style type="text/css">
	.st0{fill:#FFFFFF;}
	.st1{fill:#41B883;}
	.st2{fill:#35495E;}
</style>
<path class="st0" d="M112.7,5c-1.4-2.4-3.9-3.8-6.7-3.8H69.2c-2.7,0-5.3,1.5-6.7,3.9l-4.4,7.7L53.5,5c-1.4-2.3-3.9-3.8-6.6-3.8H10.3
	C7.5,1.2,5,2.6,3.6,5c-1.4,2.4-1.4,5.3,0,7.7l47.9,82.6c1.4,2.4,3.9,3.8,6.6,3.8c2.7,0,5.3-1.5,6.6-3.8l47.9-82.6
	C114.1,10.3,114.1,7.4,112.7,5z"/>
<path class="st1" d="M86.9,8.9h19.2L58.2,91.5L10.3,8.9h36.6L58.2,28l11-19.2H86.9z"/>
<path class="st1" d="M10.3,8.9l47.9,82.6l47.9-82.6H86.9L58.2,58.4l-29-49.6H10.3z"/>
<path class="st2" d="M29.2,8.9l29,49.8L86.9,8.9H69.2L58.2,28L46.9,8.9H29.2z"/>
</svg>
